<svg width="24" height="17" viewBox="0 0 24 17" fill="none" xmlns="http://www.w3.org/2000/svg">
<g clip-path="url(#clip0_941_3015)">
<path d="M1.99448 0.000806171H21.7278C22.0849 -0.013067 22.44 0.0601499 22.7625 0.214139L21.6958 1.28081L12.6292 10.3475C12.5515 10.4492 12.4514 10.5316 12.3367 10.5884C12.222 10.6451 12.0958 10.6746 11.9678 10.6746C11.8398 10.6746 11.7136 10.6451 11.5989 10.5884C11.4842 10.5316 11.3841 10.4492 11.3065 10.3475L1.41315 0.384806L1.24782 0.208806C1.47862 0.0859928 1.73343 0.0150091 1.99448 0.000806171ZM0.11715 15.4675C0.0966901 15.3379 0.0571498 15.2121 -0.000183105 15.0941L-0.000183105 1.76081C0.0424836 1.63281 0.0958169 1.50481 0.13315 1.37147C0.170484 1.23814 0.22915 1.17414 0.378484 1.33414C1.10382 2.07547 1.84515 2.80614 2.57582 3.54214C4.17582 5.14214 5.71715 6.69947 7.29582 8.26747C7.43448 8.40614 7.43448 8.47014 7.29582 8.6088C4.99537 10.9021 2.70026 13.2026 0.410484 15.5101C0.21315 15.7075 0.218484 15.7021 0.11715 15.4675ZM21.9838 16.8968H2.25048C1.8902 16.9143 1.53162 16.8371 1.21048 16.6728C1.85582 16.0381 2.49048 15.4248 3.11448 14.8008C4.83893 13.0799 6.55982 11.3537 8.27715 9.62214C8.41048 9.48881 8.47448 9.46747 8.61848 9.62214C9.18915 10.2195 9.78115 10.8008 10.3625 11.3875C10.5708 11.6141 10.8239 11.795 11.1057 11.9187C11.3876 12.0425 11.692 12.1064 11.9998 12.1064C12.3076 12.1064 12.6121 12.0425 12.8939 11.9187C13.1758 11.795 13.4288 11.6141 13.6372 11.3875L15.4238 9.59547C15.4985 9.51547 15.5465 9.45681 15.6585 9.56881C18.0194 11.9119 20.3678 14.2586 22.7038 16.6088C22.7038 16.6088 22.7038 16.6515 22.7465 16.6781C22.5149 16.7915 22.2627 16.8569 22.0051 16.8701L21.9838 16.8968ZM23.8398 15.5261C23.7812 15.6861 23.7332 15.7075 23.6052 15.5741C22.8692 14.8275 22.1278 14.0915 21.3918 13.3501C19.8398 11.7341 18.2718 10.1715 16.6932 8.59814C16.5598 8.46481 16.5705 8.40081 16.6932 8.27814C19.0007 5.95992 21.3029 3.65414 23.5998 1.36081C23.7812 1.17414 23.7812 1.17414 23.8772 1.43014C23.9632 1.68054 24.0047 1.94408 23.9998 2.20881V8.46481C23.9998 10.5341 23.9998 12.6035 23.9998 14.6728C23.9988 14.9541 23.952 15.2333 23.8612 15.4995L23.8398 15.5261Z" fill="white"/>
</g>
<defs>
<clipPath id="clip0_941_3015">
<rect width="24" height="16.8747" fill="white" transform="translate(-0.000183105 0.000854492)"/>
</clipPath>
</defs>
</svg>
