<svg width="22" height="19" viewBox="0 0 22 19" fill="none" xmlns="http://www.w3.org/2000/svg">
<g clip-path="url(#clip0_941_3020)">
<path d="M21.9181 1.72725C21.6207 3.2093 21.2976 4.68623 20.9848 6.16828C20.1984 9.84349 19.4155 13.5204 18.636 17.199C18.354 18.5324 17.6104 18.8196 16.5283 18.0144C14.9899 16.8965 13.4924 15.7837 11.9848 14.6555C11.7745 14.4965 11.6617 14.5119 11.4719 14.6965C10.7335 15.4298 9.97962 16.1426 9.23091 16.8657C9.08559 17.0209 8.9114 17.1464 8.71809 17.2349C8.30783 17.399 8.24629 17.358 8.27706 16.917C8.37962 15.3785 8.48732 13.8965 8.57962 12.3837C8.59049 12.2995 8.61894 12.2186 8.66311 12.1461C8.70728 12.0737 8.7662 12.0113 8.83603 11.9631L17.3386 4.27084C17.554 4.0811 17.7694 3.88623 17.9796 3.68623C18.0565 3.6093 18.1796 3.52725 18.1027 3.38879C18.0258 3.25033 17.8924 3.29648 17.7796 3.31187C17.5365 3.36979 17.309 3.48005 17.113 3.63494C13.4685 5.93922 9.82407 8.24349 6.17962 10.5478C6.06085 10.6349 5.92236 10.6913 5.7765 10.7118C5.63065 10.7324 5.48197 10.7166 5.34373 10.6657C3.84116 10.1785 2.3386 9.74264 0.836033 9.22982C0.471931 9.12725 0.0360331 9.01443 0.000135656 8.56828C-0.0357618 8.12212 0.384751 7.89135 0.748854 7.74776C2.33518 7.1187 3.92492 6.4999 5.51809 5.89135L20.1745 0.234944C20.6565 0.0452007 21.154 -0.18044 21.6206 0.234944C22.0873 0.650329 22.0514 1.19905 21.9181 1.72725Z" fill="white"/>
</g>
<defs>
<clipPath id="clip0_941_3020">
<rect width="22" height="18.4615" fill="white" transform="translate(6.10352e-05 -0.000854492)"/>
</clipPath>
</defs>
</svg>
