<svg width="23" height="23" viewBox="0 0 23 23" fill="none" xmlns="http://www.w3.org/2000/svg">
<g clip-path="url(#clip0_941_3025)">
<path d="M11.9159 7.32034C11.7253 7.32034 11.5823 7.39397 11.5564 7.58889C11.5304 7.7838 11.6516 7.89642 11.8379 7.9354C11.9195 7.95261 12.0019 7.96563 12.0848 7.97438C12.3129 7.98893 12.5307 8.07442 12.7077 8.21888C12.8848 8.36333 13.0123 8.55954 13.0724 8.78003C13.1192 8.95234 13.1554 9.12737 13.1806 9.30414C13.2153 9.50772 13.3236 9.64632 13.5358 9.62467C13.7481 9.60301 13.8 9.42109 13.7871 9.22617C13.7928 8.97723 13.7487 8.72966 13.6571 8.49809C13.5656 8.26652 13.4285 8.05565 13.2541 7.87797C13.0796 7.70029 12.8713 7.55939 12.6414 7.46361C12.4116 7.36783 12.1649 7.31911 11.9159 7.32034Z" fill="white"/>
<path d="M14.584 9.76761C14.584 9.95386 14.6923 10.0925 14.9002 10.0838C15.1081 10.0751 15.1904 9.94087 15.2121 9.75462C15.2121 9.68531 15.2121 9.61168 15.2121 9.45575C15.1948 9.16246 15.1454 8.87196 15.0648 8.58946C14.5624 6.70961 12.9641 5.93428 11.5304 5.83032C11.3224 5.83032 11.1622 5.88663 11.1362 6.1032C11.1102 6.31978 11.2748 6.43673 11.487 6.46271H11.669C12.3803 6.50225 13.0558 6.78789 13.5797 7.2707C14.1036 7.75352 14.4433 8.40347 14.5407 9.10923C14.5754 9.33447 14.5624 9.55537 14.584 9.76761Z" fill="white"/>
<path d="M15.8878 13.4277C15.3594 12.9946 14.8006 12.6091 14.2289 12.2322C13.5878 11.7991 13.185 11.8814 12.7215 12.4748C12.2581 13.0682 12.0372 13.0942 11.3658 12.8127C10.6855 12.5274 10.0737 12.1006 9.57111 11.5607C9.0685 11.0207 8.68658 10.38 8.45074 9.68102C8.36154 9.52132 8.33697 9.33349 8.38209 9.15622C8.42722 8.97895 8.5386 8.82572 8.6933 8.7281L9.02682 8.45956C9.2014 8.32735 9.32126 8.13557 9.36359 7.92071C9.40592 7.70586 9.36777 7.48294 9.25639 7.2944C8.85165 6.5647 8.36165 5.88568 7.79669 5.27161C7.70178 5.15328 7.56915 5.0711 7.42094 5.03878C7.27274 5.00646 7.11793 5.02596 6.98238 5.09402C6.39352 5.3393 5.89551 5.76162 5.55733 6.30249C5.41092 6.53625 5.3329 6.80633 5.33209 7.08215C5.33209 7.14279 5.36674 7.27274 5.41006 7.39835C6.05461 9.32208 7.11942 11.0782 8.52718 12.5391C9.93494 14.0001 11.6503 15.1292 13.5489 15.8447C13.8427 15.9888 14.1739 16.0386 14.4972 15.9875C14.8205 15.9363 15.1201 15.7866 15.3551 15.5588C15.675 15.2857 15.9371 14.9514 16.1261 14.5756C16.1929 14.487 16.24 14.3851 16.2643 14.2768C16.2886 14.1686 16.2895 14.0563 16.267 13.9477C16.2444 13.839 16.1989 13.7364 16.1335 13.6468C16.0682 13.5571 15.9844 13.4824 15.8878 13.4277Z" fill="white"/>
<path d="M11.1622 4.38794H11.1102C10.885 4.38794 10.6771 4.42692 10.6771 4.67815C10.6771 4.92937 10.8763 4.99867 11.0842 5.02466C11.2921 5.05065 11.5174 5.07231 11.7253 5.08963C12.7374 5.19736 13.6885 5.62639 14.4391 6.31387C15.1897 7.00135 15.7005 7.91115 15.8965 8.90997C15.9676 9.35879 16.011 9.81157 16.0264 10.2657C16.0264 10.4823 16.113 10.6989 16.3902 10.6555C16.6675 10.6122 16.6805 10.4433 16.6631 10.2224C16.6458 10.0015 16.6155 9.71996 16.5938 9.46873C16.4791 8.09928 15.8599 6.82123 14.8563 5.88244C13.8527 4.94366 12.5362 4.41106 11.1622 4.38794Z" fill="white"/>
<path d="M22.0472 7.12979C21.848 5.56613 21.4062 4.09777 20.3146 2.92828C19.2231 1.75879 18.1013 0.86651 16.5679 0.524326C14.7834 0.161364 12.9659 -0.01429 11.1449 0.000220194C9.75589 0.0168343 8.36896 0.113732 6.99109 0.290427C5.31977 0.427932 3.74706 1.13779 2.53836 2.30022C1.52469 3.19048 0.804376 4.36683 0.472257 5.67442C0.0435642 7.65071 -0.0950528 9.6789 0.060769 11.6951C0.0896989 12.8206 0.271852 13.9368 0.6022 15.013C0.973297 16.0403 1.56509 16.9737 2.3359 17.7475C3.10672 18.5213 4.0378 19.1167 5.06359 19.4917C5.31482 19.5957 5.40578 19.6997 5.39712 19.9725C5.37113 20.6093 5.39712 21.2417 5.39712 21.8784C5.37132 22.1007 5.41923 22.3254 5.53347 22.5179C5.64771 22.7104 5.82198 22.86 6.02951 22.9439C6.2329 23.0202 6.45551 23.0284 6.664 22.9675C6.8725 22.9066 7.05564 22.7798 7.186 22.6061C7.90503 21.8524 8.63271 21.103 9.35173 20.3494C9.39726 20.2875 9.4576 20.238 9.52722 20.2054C9.59684 20.1729 9.67352 20.1583 9.75022 20.1631C11.557 20.2419 13.3673 20.1622 15.1602 19.9249C16.8683 19.7934 18.479 19.0775 19.7212 17.8978C20.7349 17.0075 21.4552 15.8312 21.7873 14.5236C22.294 12.0917 22.3819 9.59122 22.0472 7.12979ZM19.8425 14.0601C19.7387 14.5528 19.5288 15.0169 19.2274 15.4202C18.4175 16.5247 17.4472 17.4603 16.0611 17.7548C14.3514 18.1016 12.607 18.2469 10.8634 18.188C10.6945 18.176 10.5251 18.2043 10.3692 18.2706C10.2133 18.3368 10.0754 18.4392 9.9668 18.5691C8.90992 19.678 7.83139 20.7695 6.76152 21.8654C6.64457 21.9823 6.54495 22.1556 6.32838 22.0646C6.1118 21.9737 6.20277 21.7961 6.20277 21.6315C6.20277 21.0467 6.20277 20.4577 6.20277 19.8729C6.20277 19.2882 6.20277 18.6514 6.20277 18.0407C6.20277 17.8241 6.1248 17.7418 5.92122 17.6595C4.03271 16.8929 2.67263 15.6541 2.2958 13.549C1.84348 11.0809 1.88174 8.54788 2.40842 6.09457C2.48996 5.70804 2.64431 5.34055 2.86322 5.01171C3.67753 3.7989 4.69109 2.78967 6.15945 2.46482C7.95713 2.09669 9.79165 1.93969 11.6257 1.99702C13.0141 2.02203 14.3985 2.15381 15.7666 2.39118C17.2956 2.6554 18.3655 3.60832 19.2318 4.79947C19.675 5.47174 19.9417 6.24489 20.0071 7.04749C20.3794 9.36977 20.3236 11.7406 19.8425 14.0428V14.0601Z" fill="white"/>
</g>
<defs>
<clipPath id="clip0_941_3025">
<rect width="22.242" height="23" fill="white"/>
</clipPath>
</defs>
</svg>
