<svg width="62" height="62" viewBox="0 0 62 62" fill="none" xmlns="http://www.w3.org/2000/svg">
<path d="M29.1659 30.9999L38.3109 21.8549C38.792 21.3709 39.0621 20.7161 39.0621 20.0336C39.0621 19.3512 38.792 18.6964 38.3109 18.2124C38.0707 17.9703 37.785 17.7781 37.4702 17.6469C37.1554 17.5158 36.8177 17.4482 36.4767 17.4482C36.1357 17.4482 35.798 17.5158 35.4832 17.6469C35.1684 17.7781 34.8827 17.9703 34.6425 18.2124L23.6892 29.1657C23.4471 29.4059 23.2549 29.6916 23.1237 30.0064C22.9926 30.3212 22.925 30.6589 22.925 30.9999C22.925 31.3409 22.9926 31.6786 23.1237 31.9934C23.2549 32.3082 23.4471 32.5939 23.6892 32.8341L34.6425 43.9166C34.8839 44.156 35.1702 44.3454 35.4849 44.474C35.7997 44.6025 36.1367 44.6677 36.4767 44.6657C36.8167 44.6677 37.1537 44.6025 37.4685 44.474C37.7832 44.3454 38.0695 44.156 38.3109 43.9166C38.792 43.4325 39.0621 42.7778 39.0621 42.0953C39.0621 41.4128 38.792 40.7581 38.3109 40.2741L29.1659 30.9999Z" fill="#141414"/>
</svg>
