<svg width="62" height="62" viewBox="0 0 62 62" fill="none" xmlns="http://www.w3.org/2000/svg">
<path d="M38.3106 29.1657L27.3573 18.2124C27.1171 17.9703 26.8314 17.7781 26.5166 17.6469C26.2018 17.5158 25.8642 17.4482 25.5231 17.4482C25.1821 17.4482 24.8444 17.5158 24.5296 17.6469C24.2148 17.7781 23.9291 17.9703 23.689 18.2124C23.2078 18.6964 22.9377 19.3512 22.9377 20.0336C22.9377 20.7161 23.2078 21.3709 23.689 21.8549L32.834 30.9999L23.689 40.1449C23.2078 40.6289 22.9377 41.2837 22.9377 41.9661C22.9377 42.6486 23.2078 43.3034 23.689 43.7874C23.9303 44.0268 24.2166 44.2162 24.5314 44.3448C24.8461 44.4734 25.1831 44.5385 25.5231 44.5366C25.8631 44.5385 26.2001 44.4734 26.5149 44.3448C26.8296 44.2162 27.1159 44.0268 27.3573 43.7874L38.3106 32.8341C38.5528 32.5939 38.7449 32.3082 38.8761 31.9934C39.0072 31.6786 39.0748 31.3409 39.0748 30.9999C39.0748 30.6589 39.0072 30.3212 38.8761 30.0064C38.7449 29.6916 38.5528 29.4059 38.3106 29.1657Z" fill="#141414"/>
</svg>
