<svg width="104" height="22" viewBox="0 0 104 22" fill="none" xmlns="http://www.w3.org/2000/svg">
<path d="M4.41478 1.00501H0.000976562V10.2625L4.41478 5.88396V1.00501ZM18.5074 20.2706L9.52219 11.3259L18.5074 2.4124L19.9262 1.00501H13.6838L7.09459 7.51028V7.54155L0.000976562 14.5785V21.6467H4.41478V16.3925L6.401 14.4221L13.4316 21.4278L13.6838 21.6467H19.9262L18.5074 20.2706Z" fill="#141414"/>
<path d="M37.4363 1.00501V12.3267C37.4363 14.9851 35.2925 17.2056 32.6757 17.2682C32.6126 17.2682 32.5496 17.2682 32.4865 17.2682C32.4235 17.2682 32.3604 17.2682 32.2974 17.2682C29.6806 17.2056 27.5368 14.9538 27.5368 12.3267V1.00501H23.123V13.8904C23.123 15.5793 23.722 17.1431 24.8254 18.3315C25.2668 18.8007 25.7082 19.2073 26.2126 19.5826C28.0097 20.9274 30.1851 21.6467 32.4865 21.6467C34.788 21.6467 36.9319 20.9274 38.7605 19.5826C39.2649 19.2073 39.7063 18.8007 40.1161 18.3628C41.2511 17.1744 41.8501 15.5793 41.8501 13.9217V1.00501H37.4363Z" fill="#141414"/>
<path d="M58.0649 1.31776C58.0649 1.31776 57.7812 1.22394 57.3398 1.13011C56.8984 1.06756 56.4255 1.00501 56.4255 1.00501H45.0442V1.81817V4.84827H49.5964H55.2906V4.87954H56.0157L56.0472 4.84827C56.0787 4.84827 56.4255 4.95582 56.4255 4.95582C57.4975 4.95582 57.6551 6.07161 57.6551 6.88477C57.6551 7.7292 56.993 8.8479 56.1418 8.8479H49.458H45.0442V21.6467H49.458V12.7958H56.5832C56.5832 12.7958 56.7093 12.7958 57.4975 12.6082C58.2856 12.4205 58.3172 12.3892 58.3172 12.3892C59.1369 12.0452 59.8935 11.5448 60.4925 10.888C61.5329 9.82465 62.0689 8.38599 62.0689 6.88477C62.0689 4.32019 60.4295 2.13092 58.0649 1.31776Z" fill="#141414"/>
<path d="M73.8896 1.06756C68.1517 1.06756 63.5172 5.69631 63.5172 11.3571C63.5172 17.0493 68.1517 21.6467 73.8896 21.6467C79.596 21.6467 84.2621 17.0493 84.2621 11.3571C84.2621 5.69631 79.596 1.06756 73.8896 1.06756ZM79.9113 11.3571C79.9113 14.6723 77.2 17.362 73.8896 17.362C70.5477 17.362 67.8364 14.6723 67.8364 11.3571C67.8364 8.07323 70.5477 5.38355 73.8896 5.38355C77.2 5.38355 79.9113 8.07323 79.9113 11.3571Z" fill="#141414"/>
<path d="M91.8535 17.2682V0.848633H87.4397V21.6467H103.991V17.2682H91.8535Z" fill="#141414"/>
</svg>
