<svg width="171" height="42" viewBox="0 0 171 42" fill="none" xmlns="http://www.w3.org/2000/svg">
<path d="M71.2781 11.005H66.8643V20.2625L71.2781 15.884V11.005ZM85.3707 30.2706L76.3855 21.3259L85.3707 12.4124L86.7894 11.005H80.5471L73.9579 17.5103V17.5416L66.8643 24.5785V31.6467H71.2781V26.3925L73.2643 24.4221L80.2948 31.4278L80.5471 31.6467H86.7894L85.3707 30.2706Z" fill="#141414"/>
<path d="M104.3 11.005V22.3267C104.3 24.9851 102.156 27.2056 99.539 27.2682C99.4759 27.2682 99.4129 27.2682 99.3498 27.2682C99.2868 27.2682 99.2237 27.2682 99.1607 27.2682C96.5439 27.2056 94.4001 24.9538 94.4001 22.3267V11.005H89.9862V23.8904C89.9862 25.5793 90.5853 27.1431 91.6887 28.3315C92.1301 28.8007 92.5715 29.2073 93.0759 29.5826C94.873 30.9274 97.0483 31.6467 99.3498 31.6467C101.651 31.6467 103.795 30.9274 105.624 29.5826C106.128 29.2073 106.57 28.8007 106.979 28.3628C108.114 27.1744 108.713 25.5793 108.713 23.9217V11.005H104.3Z" fill="#141414"/>
<path d="M124.928 11.3178C124.928 11.3178 124.644 11.2239 124.203 11.1301C123.762 11.0676 123.289 11.005 123.289 11.005H111.907V11.8182V14.8483H116.46H122.154V14.8795H122.879L122.91 14.8483C122.942 14.8483 123.289 14.9558 123.289 14.9558C124.361 14.9558 124.518 16.0716 124.518 16.8848C124.518 17.7292 123.856 18.8479 123.005 18.8479H116.321H111.907V31.6467H116.321V22.7958H123.446C123.446 22.7958 123.573 22.7958 124.361 22.6082C125.149 22.4205 125.18 22.3892 125.18 22.3892C126 22.0452 126.757 21.5448 127.356 20.888C128.396 19.8247 128.932 18.386 128.932 16.8848C128.932 14.3202 127.293 12.1309 124.928 11.3178Z" fill="#141414"/>
<path d="M140.753 11.0676C135.015 11.0676 130.38 15.6963 130.38 21.3571C130.38 27.0493 135.015 31.6467 140.753 31.6467C146.459 31.6467 151.125 27.0493 151.125 21.3571C151.125 15.6963 146.459 11.0676 140.753 11.0676ZM146.775 21.3571C146.775 24.6723 144.063 27.362 140.753 27.362C137.411 27.362 134.7 24.6723 134.7 21.3571C134.7 18.0732 137.411 15.3836 140.753 15.3836C144.063 15.3836 146.775 18.0732 146.775 21.3571Z" fill="#141414"/>
<path d="M158.717 27.2682V10.8486H154.303V31.6467H170.855V27.2682H158.717Z" fill="#141414"/>
<path d="M25.6667 1.16724C21.4475 21.7758 6.79757 29.8511 0 31.3127C14.0639 31.3127 18.9863 38.438 19.6895 42.0006L25.6667 1.16724Z" fill="#141414" fill-opacity="0.3"/>
<path d="M50.1678 28.5011C31.4436 26.7472 22.9216 35.9918 21.0012 40.8334L27.1226 0C28.851 14.9083 43.2062 25.2125 50.1678 28.5011Z" fill="#141414"/>
</svg>
