<svg width="89" height="19" viewBox="0 0 89 19" fill="none" xmlns="http://www.w3.org/2000/svg">
<path d="M3.77755 0.982467H0V8.90547L3.77755 5.15811V0.982467ZM15.8387 17.4709L8.14871 9.81555L15.8387 2.18698L17.0529 0.982467H11.7104L6.07106 6.54999V6.57675L0 12.5993V18.6486H3.77755V14.1518L5.47744 12.4655L11.4945 18.4613L11.7104 18.6486H17.0529L15.8387 17.4709Z" fill="#141414"/>
<path d="M32.0389 0.982467V10.6721C32.0389 12.9473 30.2041 14.8477 27.9646 14.9013C27.9106 14.9013 27.8567 14.9013 27.8027 14.9013C27.7487 14.9013 27.6948 14.9013 27.6408 14.9013C25.4013 14.8477 23.5664 12.9205 23.5664 10.6721V0.982467H19.7889V12.0104C19.7889 13.4559 20.3016 14.7942 21.246 15.8113C21.6237 16.2128 22.0015 16.5608 22.4332 16.882C23.9712 18.033 25.833 18.6486 27.8027 18.6486C29.7724 18.6486 31.6072 18.033 33.1722 16.882C33.6039 16.5608 33.9817 16.2128 34.3325 15.8381C35.3038 14.821 35.8165 13.4559 35.8165 12.0372V0.982467H32.0389Z" fill="#141414"/>
<path d="M49.6939 1.25014C49.6939 1.25014 49.4511 1.16983 49.0733 1.08954C48.6956 1.036 48.2908 0.982467 48.2908 0.982467H38.5502V1.67841V4.27171H42.4462H47.3195V4.29848H47.9401L47.967 4.27171C47.994 4.27171 48.2908 4.36376 48.2908 4.36376C49.2082 4.36376 49.3431 5.31871 49.3431 6.01465C49.3431 6.73735 48.7765 7.69479 48.048 7.69479H42.3277H38.5502V18.6486H42.3277V11.0736H48.4257C48.4257 11.0736 48.5337 11.0736 49.2082 10.913C49.8828 10.7524 49.9098 10.7256 49.9098 10.7256C50.6113 10.4312 51.2589 10.0029 51.7716 9.44081C52.662 8.53074 53.1207 7.29946 53.1207 6.01465C53.1207 3.81976 51.7176 1.94608 49.6939 1.25014Z" fill="#141414"/>
<path d="M63.2374 1.036C58.3266 1.036 54.3602 4.9975 54.3602 9.84232C54.3602 14.7139 58.3266 18.6486 63.2374 18.6486C68.1213 18.6486 72.1147 14.7139 72.1147 9.84232C72.1147 4.9975 68.1213 1.036 63.2374 1.036ZM68.3911 9.84232C68.3911 12.6796 66.0706 14.9816 63.2374 14.9816C60.3773 14.9816 58.0568 12.6796 58.0568 9.84232C58.0568 7.03179 60.3773 4.72984 63.2374 4.72984C66.0706 4.72984 68.3911 7.03179 68.3911 9.84232Z" fill="#141414"/>
<path d="M78.6117 14.9013V0.848633H74.8342V18.6486H89V14.9013H78.6117Z" fill="#141414"/>
</svg>
