<svg width="20" height="20" viewBox="0 0 20 20" fill="none" xmlns="http://www.w3.org/2000/svg">
<g clip-path="url(#clip0_901_2731)">
<path d="M14.8919 19.9941C14.0192 19.9145 13.1799 19.6922 12.3607 19.3876C10.2443 18.6007 8.39087 17.3826 6.68554 15.9207C4.64439 14.1753 2.92848 12.1547 1.61523 9.80614C0.924635 8.57699 0.386638 7.28713 0.118196 5.89647C0.0758695 5.68094 0.0463521 5.45817 0.0112653 5.24096C-0.0316185 4.97363 0.0558199 4.73415 0.183914 4.51138C0.856689 3.32846 1.70712 2.28365 2.63887 1.29732C2.9938 0.915404 3.3843 0.568166 3.80509 0.260315C4.39989 -0.166852 4.90113 -0.0320746 5.41629 0.411801C5.47393 0.461249 5.52553 0.517331 5.57001 0.57888C6.47614 1.86372 7.35219 3.16583 8.01717 4.59826C8.09792 4.77314 8.1564 4.9586 8.22658 5.13849C8.42874 5.65755 8.29285 6.09808 7.91692 6.48571C7.61673 6.79592 7.27923 7.06325 6.95231 7.34227C6.56246 7.67309 6.55466 7.67309 6.75126 8.14926C7.78326 10.6521 9.57157 12.3792 12.0978 13.3521C12.2738 13.4201 12.3763 13.3984 12.4977 13.2485C12.8046 12.8726 13.1298 12.5106 13.4562 12.1514C13.8811 11.683 14.3879 11.5761 14.9822 11.8016C15.7418 12.0907 16.4441 12.4872 17.1358 12.906C17.8877 13.3616 18.6195 13.8495 19.334 14.363C19.5055 14.4816 19.6529 14.6316 19.7684 14.8052C20.0547 15.2468 20.0954 15.6801 19.7813 16.1362C19.3558 16.7539 18.8267 17.2724 18.272 17.7664C17.4115 18.5333 16.5115 19.2484 15.4996 19.8098C15.3113 19.9156 15.1214 20.0236 14.8919 19.9941Z" fill="#EC5959"/>
</g>
<defs>
<clipPath id="clip0_901_2731">
<rect width="19.9989" height="20" fill="white"/>
</clipPath>
</defs>
</svg>
