<svg width="23" height="23" viewBox="0 0 23 23" fill="none" xmlns="http://www.w3.org/2000/svg">
<g clip-path="url(#clip0_901_2747)">
<path d="M11.916 7.32009C11.7254 7.32009 11.5825 7.39373 11.5565 7.58864C11.5305 7.78356 11.6518 7.89617 11.838 7.93516C11.9196 7.95237 12.002 7.96538 12.0849 7.97414C12.313 7.98869 12.5308 8.07417 12.7079 8.21863C12.8849 8.36309 13.0124 8.55929 13.0725 8.77979C13.1193 8.95209 13.1555 9.12713 13.1808 9.3039C13.2154 9.50747 13.3237 9.64608 13.5359 9.62442C13.7482 9.60276 13.8002 9.42084 13.7872 9.22593C13.793 8.97699 13.7488 8.72941 13.6572 8.49784C13.5657 8.26627 13.4286 8.05541 13.2542 7.87773C13.0797 7.70004 12.8714 7.55914 12.6416 7.46336C12.4117 7.36758 12.165 7.31887 11.916 7.32009V7.32009Z" fill="#141414"/>
<path d="M14.5841 9.76737C14.5841 9.95362 14.6924 10.0922 14.9003 10.0836C15.1082 10.0749 15.1905 9.94062 15.2121 9.75437C15.2121 9.68507 15.2121 9.61143 15.2121 9.4555C15.1949 9.16222 15.1455 8.87172 15.0649 8.58921C14.5624 6.70936 12.9641 5.93403 11.5304 5.83008C11.3225 5.83008 11.1622 5.88639 11.1362 6.10296C11.1103 6.31953 11.2749 6.43648 11.4871 6.46247H11.669C12.3804 6.50201 13.0558 6.78764 13.5798 7.27046C14.1037 7.75327 14.4434 8.40322 14.5408 9.10899C14.5754 9.33422 14.5624 9.55512 14.5841 9.76737Z" fill="#141414"/>
<path d="M15.8879 13.4276C15.3595 12.9945 14.8007 12.609 14.229 12.2321C13.5879 11.799 13.1851 11.8813 12.7216 12.4747C12.2581 13.0681 12.0372 13.0941 11.3659 12.8125C10.6856 12.5273 10.0738 12.1005 9.57117 11.5606C9.06856 11.0206 8.68664 10.3799 8.4508 9.6809C8.3616 9.5212 8.33703 9.33337 8.38215 9.1561C8.42728 8.97883 8.53866 8.8256 8.69336 8.72798L9.02688 8.45943C9.20146 8.32723 9.32132 8.13545 9.36365 7.92059C9.40598 7.70574 9.36783 7.48282 9.25645 7.29427C8.85171 6.56458 8.36171 5.88556 7.79675 5.27149C7.70184 5.15316 7.56921 5.07098 7.421 5.03866C7.2728 5.00634 7.118 5.02583 6.98244 5.0939C6.39358 5.33918 5.89558 5.7615 5.55739 6.30237C5.41099 6.53613 5.33296 6.80621 5.33215 7.08203C5.33215 7.14267 5.3668 7.27262 5.41012 7.39823C6.05467 9.32196 7.11948 11.078 8.52724 12.539C9.935 14 11.6504 15.1291 13.5489 15.8446C13.8428 15.9886 14.174 16.0385 14.4972 15.9873C14.8205 15.9362 15.1201 15.7865 15.3551 15.5587C15.6751 15.2856 15.9372 14.9513 16.1261 14.5754C16.1929 14.4868 16.2401 14.385 16.2644 14.2767C16.2887 14.1684 16.2896 14.0562 16.267 13.9476C16.2445 13.8389 16.199 13.7363 16.1336 13.6466C16.0682 13.557 15.9845 13.4823 15.8879 13.4276V13.4276Z" fill="#141414"/>
<path d="M11.1622 4.3877H11.1103C10.885 4.3877 10.6771 4.42668 10.6771 4.6779C10.6771 4.92913 10.8764 4.99843 11.0843 5.02442C11.2922 5.05041 11.5174 5.07206 11.7253 5.08939C12.7375 5.19711 13.6885 5.62614 14.4392 6.31363C15.1898 7.00111 15.7005 7.91091 15.8965 8.90973C15.9676 9.35855 16.011 9.81132 16.0265 10.2655C16.0265 10.482 16.1131 10.6986 16.3903 10.6553C16.6675 10.612 16.6805 10.4431 16.6632 10.2222C16.6459 10.0013 16.6155 9.71971 16.5939 9.46849C16.4792 8.09904 15.86 6.82098 14.8564 5.8822C13.8528 4.94342 12.5363 4.41082 11.1622 4.3877V4.3877Z" fill="#141414"/>
<path d="M22.0473 7.12966C21.848 5.56601 21.4062 4.09765 20.3147 2.92816C19.2232 1.75867 18.1013 0.866388 16.568 0.524204C14.7835 0.161242 12.966 -0.0144121 11.145 9.81236e-05C9.75596 0.0167122 8.36902 0.11361 6.99115 0.290305C5.31984 0.42781 3.74712 1.13767 2.53842 2.3001C1.52475 3.19035 0.804437 4.36671 0.472318 5.6743C0.0436252 7.65059 -0.0949918 9.67877 0.06083 11.695C0.08976 12.8204 0.271913 13.9367 0.602261 15.0129C0.973358 16.0401 1.56515 16.9735 2.33596 17.7473C3.10678 18.5211 4.03786 19.1165 5.06366 19.4916C5.31488 19.5956 5.40584 19.6995 5.39718 19.9724C5.37119 20.6091 5.39718 21.2415 5.39718 21.8783C5.37139 22.1006 5.41929 22.3253 5.53353 22.5178C5.64777 22.7102 5.82204 22.8599 6.02957 22.9438C6.23296 23.02 6.45557 23.0283 6.66407 22.9674C6.87256 22.9065 7.0557 22.7797 7.18607 22.6059C7.90509 21.8523 8.63277 21.1029 9.35179 20.3493C9.39732 20.2873 9.45766 20.2378 9.52728 20.2053C9.5969 20.1728 9.67358 20.1582 9.75028 20.163C11.5571 20.2417 13.3674 20.162 15.1603 19.9248C16.8684 19.7932 18.479 19.0774 19.7213 17.8977C20.735 17.0074 21.4553 15.831 21.7874 14.5235C22.2941 12.0916 22.3819 9.5911 22.0473 7.12966V7.12966ZM19.8426 14.06C19.7388 14.5526 19.5289 15.0168 19.2275 15.4201C18.4175 16.5246 17.4473 17.4602 16.0612 17.7547C14.3515 18.1015 12.607 18.2468 10.8635 18.1879C10.6945 18.1759 10.5251 18.2042 10.3693 18.2705C10.2134 18.3367 10.0755 18.4391 9.96686 18.569C8.90998 19.6779 7.83145 20.7694 6.76158 21.8653C6.64463 21.9822 6.54501 22.1555 6.32844 22.0645C6.11187 21.9735 6.20283 21.796 6.20283 21.6314C6.20283 21.0466 6.20283 20.4575 6.20283 19.8728C6.20283 19.288 6.20283 18.6513 6.20283 18.0406C6.20283 17.824 6.12486 17.7417 5.92128 17.6594C4.03277 16.8928 2.67269 15.654 2.29586 13.5489C1.84354 11.0808 1.8818 8.54775 2.40848 6.09445C2.49003 5.70792 2.64437 5.34043 2.86328 5.01159C3.67759 3.79878 4.69115 2.78955 6.15951 2.46469C7.9572 2.09656 9.79171 1.93957 11.6258 1.9969C13.0142 2.02191 14.3985 2.15368 15.7667 2.39106C17.2957 2.65528 18.3655 3.6082 19.2318 4.79935C19.6751 5.47161 19.9418 6.24477 20.0072 7.04737C20.3794 9.36965 20.3237 11.7405 19.8426 14.0427V14.06Z" fill="#141414"/>
</g>
<defs>
<clipPath id="clip0_901_2747">
<rect width="22.242" height="23" fill="white"/>
</clipPath>
</defs>
</svg>
