<svg width="24" height="28" viewBox="0 0 24 28" fill="none" xmlns="http://www.w3.org/2000/svg">
<path d="M15 15.586V10H17V8C17 7.46957 16.7893 6.96086 16.4142 6.58579C16.0391 6.21071 15.5304 6 15 6H9C8.46957 6 7.96086 6.21071 7.58579 6.58579C7.21071 6.96086 7 7.46957 7 8V10H9V15.586L6.293 17.293C6.10545 17.4805 6.00006 17.7348 6 18V20C6 20.2652 6.10536 20.5196 6.29289 20.7071C6.48043 20.8946 6.73478 21 7 21H11V24L12 26L13 24V21H17C17.2652 21 17.5196 20.8946 17.7071 20.7071C17.8946 20.5196 18 20.2652 18 20V18C17.9999 17.7348 17.8946 17.4805 17.707 17.293L15 15.586Z" fill="#EC5959"/>
</svg>
