<svg width="24" height="24" viewBox="0 0 24 24" fill="none" xmlns="http://www.w3.org/2000/svg">
<path d="M3.66222 5.00138H20.1067C20.4042 4.98982 20.7002 5.05084 20.9689 5.17916L20.08 6.06805L12.5244 13.6236C12.4597 13.7084 12.3763 13.7771 12.2808 13.8244C12.1852 13.8716 12.08 13.8962 11.9733 13.8962C11.8667 13.8962 11.7615 13.8716 11.6659 13.8244C11.5703 13.7771 11.4869 13.7084 11.4222 13.6236L3.17778 5.32138L3.04 5.17472C3.23233 5.07237 3.44468 5.01322 3.66222 5.00138ZM2.09778 17.8903C2.08073 17.7823 2.04778 17.6775 2 17.5792V6.46805C2.03556 6.36138 2.08 6.25472 2.11111 6.14361C2.14222 6.03249 2.19111 5.97916 2.31556 6.11249C2.92 6.73027 3.53778 7.33916 4.14667 7.95249C5.48 9.28583 6.76444 10.5836 8.08 11.8903C8.19556 12.0058 8.19556 12.0592 8.08 12.1747C6.16296 14.0858 4.25037 16.0029 2.34222 17.9258C2.17778 18.0903 2.18222 18.0858 2.09778 17.8903ZM20.32 19.0814H3.87556C3.57532 19.096 3.2765 19.0316 3.00889 18.8947C3.54667 18.3658 4.07556 17.8547 4.59556 17.3347C6.03259 15.9006 7.46667 14.4621 8.89778 13.0192C9.00889 12.908 9.06222 12.8903 9.18222 13.0192C9.65778 13.5169 10.1511 14.0014 10.6356 14.4903C10.8091 14.6791 11.02 14.8299 11.2549 14.933C11.4898 15.0361 11.7435 15.0894 12 15.0894C12.2565 15.0894 12.5102 15.0361 12.7451 14.933C12.98 14.8299 13.1909 14.6791 13.3644 14.4903L14.8533 12.9969C14.9156 12.9303 14.9556 12.8814 15.0489 12.9747C17.0163 14.9273 18.9733 16.8829 20.92 18.8414C20.92 18.8414 20.92 18.8769 20.9556 18.8992C20.7625 18.9937 20.5524 19.0481 20.3378 19.0592L20.32 19.0814ZM21.8667 17.9392C21.8178 18.0725 21.7778 18.0903 21.6711 17.9792C21.0578 17.3569 20.44 16.7436 19.8267 16.1258C18.5333 14.7792 17.2267 13.4769 15.9111 12.1658C15.8 12.0547 15.8089 12.0014 15.9111 11.8992C17.8341 9.96731 19.7526 8.04583 21.6667 6.13472C21.8178 5.97916 21.8178 5.97916 21.8978 6.19249C21.9695 6.40116 22.0041 6.62078 22 6.84138V12.0547C22 13.7792 22 15.5036 22 17.228C21.9992 17.4624 21.9602 17.6951 21.8844 17.9169L21.8667 17.9392Z" fill="#EC5959"/>
</svg>
