<svg width="24" height="24" viewBox="0 0 24 24" fill="none" xmlns="http://www.w3.org/2000/svg">
<path d="M16.8917 21.9934C16.019 21.9137 15.1797 21.6915 14.3604 21.3869C12.2441 20.5999 10.3906 19.3819 8.6853 17.92C6.64414 16.1745 4.92823 14.154 3.61499 11.8054C2.92439 10.5763 2.38639 9.2864 2.11795 7.89574C2.07563 7.68021 2.04611 7.45743 2.01102 7.24023C1.96814 6.9729 2.05558 6.73342 2.18367 6.51065C2.85644 5.32772 3.70688 4.28292 4.63863 3.29659C4.99355 2.91467 5.38406 2.56743 5.80485 2.25958C6.39965 1.83242 6.90089 1.96719 7.41605 2.41107C7.47369 2.46052 7.52528 2.5166 7.56976 2.57815C8.47589 3.86299 9.35195 5.1651 10.0169 6.59753C10.0977 6.77241 10.1562 6.95787 10.2263 7.13775C10.4285 7.65682 10.2926 8.09735 9.91668 8.48497C9.61649 8.79519 9.27899 9.06251 8.95207 9.34154C8.56222 9.67235 8.55442 9.67235 8.75102 10.1485C9.78301 12.6514 11.5713 14.3784 14.0976 15.3514C14.2736 15.4193 14.376 15.3976 14.4974 15.2478C14.8043 14.8719 15.1296 14.5099 15.4559 14.1506C15.8809 13.6823 16.3877 13.5753 16.9819 13.8009C17.7416 14.0899 18.4439 14.4865 19.1356 14.9053C19.8874 15.3609 20.6192 15.8487 21.3338 16.3622C21.5052 16.4808 21.6527 16.6309 21.7682 16.8044C22.0545 17.2461 22.0951 17.6794 21.781 18.1355C21.3555 18.7531 20.8264 19.2716 20.2717 19.7656C19.4113 20.5325 18.5113 21.2476 17.4993 21.809C17.3111 21.9148 17.1212 22.0229 16.8917 21.9934Z" fill="#EC5959"/>
</svg>
