<svg width="24" height="24" viewBox="0 0 24 24" fill="none" xmlns="http://www.w3.org/2000/svg">
<path d="M12.0004 2.3999C6.69879 2.3999 2.40039 6.6983 2.40039 11.9999C2.40039 17.3015 6.69879 21.5999 12.0004 21.5999C17.302 21.5999 21.6004 17.3015 21.6004 11.9999C21.6004 6.6983 17.302 2.3999 12.0004 2.3999ZM12.8004 12.7999H6.39639C5.95639 12.7999 5.60039 12.4439 5.60039 12.0039V11.9951C5.60039 11.5559 5.95639 11.1999 6.39639 11.1999H11.2004V4.7959C11.2004 4.3559 11.5564 3.9999 11.9964 3.9999H12.0052C12.4444 3.9999 12.8004 4.3559 12.8004 4.7959V12.7999Z" fill="#EC5959"/>
</svg>
