<svg width="24" height="24" viewBox="0 0 24 24" fill="none" xmlns="http://www.w3.org/2000/svg">
<path d="M22 11.6895C22 10.2331 21.5614 8.7766 20.9474 7.50219C19.807 5.3175 18.2281 3.77001 16.0351 2.85972C15.8596 2.76869 15.7719 2.76869 15.5965 2.85972C14.4561 3.22383 13.5789 3.95206 13.1404 5.04441C13.0526 5.13544 13.0526 5.22647 13.0526 5.3175C12.8772 5.59058 12.8772 5.77264 12.7895 6.04573C12.7018 6.13676 12.7895 6.31882 12.7018 6.50087C12.7018 6.95602 12.7018 6.95602 13.1404 7.13808C13.4035 7.22911 13.7544 7.41116 14.0175 7.50219C14.9825 7.95734 15.6842 8.59454 16.2105 9.50483C16.2105 9.68688 16.386 9.77791 16.4737 9.95997C16.6491 10.4151 16.7368 10.9613 16.8246 11.4164C16.9123 11.5985 16.7368 11.7806 16.8246 12.0536C16.8246 12.1447 16.8246 12.2357 16.8246 12.3267C16.7368 12.5088 16.8246 12.6908 16.8246 12.7819C16.6491 13.8742 16.2105 14.8755 15.5088 15.6948C15.4211 15.7858 15.3333 15.8769 15.2456 15.9679C14.7193 16.423 14.193 16.7871 13.5789 17.0602C13.4912 17.0602 13.4035 17.0602 13.3158 17.1513C13.0526 17.2423 12.7018 17.3333 12.3509 17.3333C12 17.3333 11.7368 17.3333 11.386 17.3333C11.2982 17.3333 11.1228 17.3333 11.0351 17.3333C9.63158 17.0602 8.49123 16.332 7.61404 15.1486C7 14.2383 6.5614 13.237 6.5614 12.1447C6.47368 12.0536 6.5614 11.9626 6.5614 11.8716C6.5614 11.7806 6.5614 11.6895 6.5614 11.6895C6.5614 11.5985 6.5614 11.5075 6.5614 11.3254C6.5614 11.0523 6.5614 10.8703 6.64912 10.5972C6.73684 10.5061 6.64912 10.4151 6.64912 10.3241C6.64912 9.59586 6.91228 8.95865 7.17544 8.41248C7.26316 8.32145 7.26316 8.13939 7.35088 8.04837C7.4386 7.77528 7.52632 7.59322 7.61404 7.41116C8.49123 5.9547 9.63158 4.86235 11.0351 4.04309C11.1228 4.04309 11.2982 3.95206 11.386 3.86104C11.5614 3.77001 11.7368 3.67898 11.9123 3.67898C12 3.67898 12.0877 3.58795 12.1754 3.58795C12.2632 3.58795 12.3509 3.49692 12.3509 3.49692C12.5263 3.49692 12.7018 3.40589 12.8772 3.31486C13.3158 2.95075 13.7544 2.95075 14.193 2.85972C14.2807 2.76869 14.3684 2.85972 14.4561 2.85972C14.5439 2.85972 14.6316 2.85972 14.807 2.85972C14.8947 2.76869 14.9825 2.85972 15.0702 2.85972C15.1579 2.85972 15.2456 2.85972 15.3333 2.76869C14.6316 2.31354 13.8421 2.22252 13.1404 2.04046C13.0526 1.94943 12.8772 2.04046 12.7018 2.04046C12.2632 2.04046 11.8246 2.04046 11.386 2.04046C11.2982 2.13149 11.1228 2.04046 11.0351 2.04046C9.80702 2.13149 8.66667 2.4956 7.61404 3.04178C6.38597 3.67898 5.24561 4.49824 4.2807 5.68161C3.57895 6.50087 3.05263 7.41116 2.70175 8.41248C2.35088 9.32277 2.08772 10.3241 2 11.4164C2 11.8716 2 12.2357 2 12.6908C2 12.8729 2 13.055 2 13.237C2.17544 13.9652 2.35088 14.7845 2.61404 15.5127C3.05263 16.7871 3.75439 17.8795 4.63158 18.8808C5.07018 19.3359 5.50877 19.7001 5.94737 20.0642C7 20.8834 8.05263 21.3386 9.2807 21.7027C9.98246 21.8848 10.7719 22.0668 11.4737 21.9758C11.8246 21.9758 12.1754 21.9758 12.614 21.9758C12.9649 21.9758 13.2281 21.9758 13.5789 21.8848C15.9474 21.5206 17.9649 20.4283 19.5439 18.6077C21.0351 16.8782 21.8246 14.9666 22 12.6908C22 12.4178 22 12.0536 22 11.6895Z" fill="#EC5959"/>
</svg>
