<svg width="130" height="130" viewBox="0 0 130 130" fill="none" xmlns="http://www.w3.org/2000/svg">
<path d="M121.54 41.5C123.75 41.5 125.54 39.71 125.54 37.5V29.5C125.54 27.29 123.75 25.5 121.54 25.5H106.54V19.5C106.54 18.4 105.64 17.5 104.54 17.5H80.54C79.44 17.5 78.54 18.4 78.54 19.5V25.5H51.54V19.5C51.54 18.4 50.64 17.5 49.54 17.5H25.54C24.44 17.5 23.54 18.4 23.54 19.5V25.5H8.53996C6.32996 25.5 4.53996 27.29 4.53996 29.5V37.5C4.53996 39.71 6.32996 41.5 8.53996 41.5H11.96V96.5H8.45996C6.24996 96.5 4.45996 98.29 4.45996 100.5V108.5C4.45996 110.71 6.24996 112.5 8.45996 112.5H121.46C123.67 112.5 125.46 110.71 125.46 108.5V100.5C125.46 98.29 123.67 96.5 121.46 96.5H117.96V41.5H121.54ZM81.54 20.5H103.54V25.5H81.54V20.5ZM26.54 20.5H48.54V25.5H26.54V20.5ZM8.53996 37.5V29.5H121.54V37.5H8.53996ZM121.46 100.5V108.5H8.45996V100.5H121.46ZM114.96 96.5H14.96V41.5H114.96V96.5Z" fill="#141414"/>
<path d="M62.97 90.24C62.84 90.24 62.7 90.22 62.57 90.18C61.92 90 61.47 89.41 61.47 88.74V73H52.63C52.09 73 51.59 72.71 51.32 72.23C51.06 71.76 51.07 71.18 51.35 70.71L65.14 48.3C65.49 47.73 66.18 47.46 66.83 47.64C67.48 47.82 67.92 48.41 67.92 49.08V63.1H77.63C78.17 63.1 78.67 63.39 78.94 63.86C79.21 64.33 79.2 64.91 78.91 65.37L64.25 89.51C63.97 89.97 63.48 90.23 62.97 90.23V90.24ZM55.31 70H62.97C63.8 70 64.47 70.67 64.47 71.5V83.38L74.96 66.1H66.42C65.59 66.1 64.92 65.43 64.92 64.6V54.38L55.31 69.99V70Z" fill="#141414"/>
<path d="M40.62 70H27.62C26.79 70 26.12 69.33 26.12 68.5C26.12 67.67 26.79 67 27.62 67H40.62C41.45 67 42.12 67.67 42.12 68.5C42.12 69.33 41.45 70 40.62 70Z" fill="#141414"/>
<path d="M102.62 67H97.62V62C97.62 61.17 96.95 60.5 96.12 60.5C95.29 60.5 94.62 61.17 94.62 62V67H89.62C88.79 67 88.12 67.67 88.12 68.5C88.12 69.33 88.79 70 89.62 70H94.62V75C94.62 75.83 95.29 76.5 96.12 76.5C96.95 76.5 97.62 75.83 97.62 75V70H102.62C103.45 70 104.12 69.33 104.12 68.5C104.12 67.67 103.45 67 102.62 67Z" fill="#141414"/>
</svg>
