<svg width="130" height="130" viewBox="0 0 130 130" fill="none" xmlns="http://www.w3.org/2000/svg">
<g clip-path="url(#clip0_406_41245)">
<path d="M111.33 80.8701V106.37H98.33V80.8701H111.33ZM112.33 77.8701H97.33C96.23 77.8701 95.33 78.7701 95.33 79.8701V107.37C95.33 108.47 96.23 109.37 97.33 109.37H112.33C113.43 109.37 114.33 108.47 114.33 107.37V79.8701C114.33 78.7701 113.43 77.8701 112.33 77.8701Z" fill="#141414"/>
<path d="M86.11 80.8701V88.8701H71V80.8701H86.11ZM88.11 77.8701H69C68.45 77.8701 68 78.3201 68 78.8701V90.8701C68 91.4201 68.45 91.8701 69 91.8701H88.11C88.66 91.8701 89.11 91.4201 89.11 90.8701V78.8701C89.11 78.3201 88.66 77.8701 88.11 77.8701Z" fill="#141414"/>
<path d="M59.11 80.8701V88.8701H44V80.8701H59.11ZM61.11 77.8701H42C41.45 77.8701 41 78.3201 41 78.8701V90.8701C41 91.4201 41.45 91.8701 42 91.8701H61.11C61.66 91.8701 62.11 91.4201 62.11 90.8701V78.8701C62.11 78.3201 61.66 77.8701 61.11 77.8701Z" fill="#141414"/>
<path d="M104.83 95.8701C105.93 95.8701 106.83 96.7701 106.83 97.8701C106.83 98.9701 105.93 99.8701 104.83 99.8701C103.73 99.8701 102.83 98.9701 102.83 97.8701C102.83 96.7701 103.73 95.8701 104.83 95.8701ZM104.83 93.8701C102.62 93.8701 100.83 95.6601 100.83 97.8701C100.83 100.08 102.62 101.87 104.83 101.87C107.04 101.87 108.83 100.08 108.83 97.8701C108.83 95.6601 107.04 93.8701 104.83 93.8701Z" fill="#141414"/>
<path d="M106.33 84.8701H103.33V90.8701H106.33V84.8701Z" fill="#141414"/>
<path d="M13.8201 87.1701H12.5101C12.4601 87.1701 12.4101 87.1501 12.3701 87.1001C12.3301 87.0501 12.3101 87.0001 12.3101 86.9301V85.4901C12.3101 85.4201 12.3301 85.3701 12.3701 85.3201C12.4101 85.2701 12.4501 85.2501 12.5101 85.2501H13.5301C13.8001 85.2501 13.9501 85.2301 13.9801 85.1801L12.4101 81.1601C12.4101 81.1601 12.4101 81.1201 12.4101 81.1001C12.4301 80.9601 12.4901 80.8801 12.5901 80.8801H14.1801C14.2801 80.8801 14.3601 80.9501 14.4101 81.1001L15.2201 83.4601L15.9301 81.1001C15.9801 80.9601 16.0601 80.8801 16.1801 80.8801H17.6801C17.6801 80.8801 17.7601 80.9001 17.8001 80.9401C17.8301 80.9801 17.8501 81.0201 17.8501 81.0701C17.8501 81.1201 17.8501 81.1501 17.8501 81.1601L16.7601 84.3101C16.5501 84.9201 16.3901 85.3601 16.2701 85.6301C16.1501 85.9001 15.9901 86.1801 15.7701 86.4601C15.5501 86.7401 15.2901 86.9301 14.9901 87.0301C14.6901 87.1301 14.3001 87.1701 13.8301 87.1701H13.8201Z" fill="#141414"/>
<path d="M23.2201 85.2001C23.2201 85.8101 22.9901 86.2901 22.5201 86.6501C22.0501 87.0001 21.4501 87.1801 20.7101 87.1801C19.7201 87.1801 19.0001 86.8801 18.5601 86.2801C18.3301 85.9601 18.2101 85.6401 18.2101 85.3101C18.2101 85.2501 18.2301 85.2001 18.2601 85.1701C18.2901 85.1401 18.3301 85.1201 18.3701 85.1201H19.9601C20.0101 85.1201 20.0701 85.1501 20.1201 85.2101C20.1701 85.2701 20.2101 85.3201 20.2401 85.3401C20.3201 85.4101 20.4601 85.4401 20.6601 85.4401C21.0701 85.4401 21.2801 85.3101 21.2801 85.0501C21.2801 84.8501 21.0901 84.7401 20.7201 84.7401H19.7601C19.7101 84.7401 19.6601 84.7201 19.6201 84.6701C19.5801 84.6201 19.5601 84.5601 19.5601 84.5001V83.3901C19.5601 83.3201 19.5801 83.2701 19.6201 83.2201C19.6601 83.1701 19.7001 83.1501 19.7601 83.1501H20.7201C21.0901 83.1501 21.2801 83.0701 21.2801 82.9201C21.2801 82.8201 21.2301 82.7501 21.1301 82.7001C21.0301 82.6501 20.9001 82.6201 20.7501 82.6201C20.6001 82.6201 20.4901 82.6201 20.4101 82.6401C20.3301 82.6601 20.2801 82.6701 20.2501 82.6901C20.2201 82.7101 20.1801 82.7401 20.1301 82.7901C20.0801 82.8401 20.0201 82.8601 19.9701 82.8601H18.3801C18.3801 82.8601 18.3001 82.8401 18.2701 82.8101C18.2401 82.7801 18.2201 82.7301 18.2201 82.6701C18.2201 82.2801 18.4001 81.8901 18.7701 81.5101C18.9501 81.3201 19.2101 81.1601 19.5501 81.0401C19.8901 80.9201 20.2801 80.8601 20.7201 80.8601C21.4601 80.8601 22.0601 81.0301 22.5301 81.3701C23.0001 81.7101 23.2301 82.1701 23.2301 82.7501C23.2301 83.0501 23.1501 83.3101 22.9801 83.5301C22.8101 83.7501 22.6601 83.8801 22.5101 83.9301C22.6601 83.9801 22.8101 84.1201 22.9801 84.3601C23.1501 84.6001 23.2301 84.8801 23.2301 85.1901L23.2201 85.2001Z" fill="#141414"/>
<path d="M24.75 80.8801H29.43C29.48 80.8801 29.53 80.9001 29.57 80.9501C29.61 81.0001 29.63 81.0601 29.63 81.1201V86.9301C29.63 87.0001 29.61 87.0501 29.57 87.1001C29.53 87.1501 29.49 87.1701 29.43 87.1701H28.01C27.96 87.1701 27.91 87.1501 27.87 87.1001C27.83 87.0501 27.81 87.0001 27.81 86.9301V82.8201H26.36V86.9301C26.36 87.0001 26.34 87.0501 26.3 87.1001C26.26 87.1501 26.22 87.1701 26.16 87.1701H24.74C24.69 87.1701 24.64 87.1501 24.6 87.1001C24.56 87.0501 24.54 87.0001 24.54 86.9201V81.1101C24.54 81.0401 24.56 80.9901 24.6 80.9401C24.64 80.8901 24.68 80.8701 24.74 80.8701L24.75 80.8801Z" fill="#141414"/>
<path d="M32.5901 83.3501V84.7101C32.5901 84.9401 32.6601 85.1201 32.7901 85.2501C32.9201 85.3801 33.1001 85.4401 33.3101 85.4401C33.5201 85.4401 33.6801 85.4001 33.7801 85.3201C33.8801 85.2401 33.9601 85.1201 34.0201 84.9701C34.0901 84.8201 34.1701 84.7401 34.2801 84.7401H35.8401C35.8401 84.7401 35.9201 84.7601 35.9501 84.8001C35.9801 84.8401 36.0001 84.8801 36.0001 84.9401C36.0001 85.4901 35.7901 85.9901 35.3601 86.4401C35.1501 86.6601 34.8601 86.8501 34.5101 86.9801C34.1601 87.1101 33.7401 87.1901 33.2601 87.1901C32.7801 87.1901 32.3401 87.1001 31.9501 86.9201C31.5601 86.7401 31.2401 86.4501 30.9901 86.0401C30.7401 85.6301 30.6201 85.1401 30.6201 84.5501V83.5201C30.6201 82.9301 30.7401 82.4301 30.9901 82.0201C31.4501 81.2601 32.2301 80.8801 33.3201 80.8801C33.7601 80.8801 34.1601 80.9501 34.5101 81.0901C34.8601 81.2301 35.1501 81.4101 35.3601 81.6301C35.7801 82.0801 36.0001 82.5901 36.0001 83.1301C36.0001 83.1801 35.9801 83.2301 35.9501 83.2701C35.9201 83.3101 35.8801 83.3301 35.8401 83.3301H34.2801C34.1701 83.3301 34.0901 83.2501 34.0201 83.1001C33.9501 82.9501 33.8701 82.8301 33.7801 82.7501C33.6801 82.6701 33.5301 82.6301 33.3101 82.6301C33.0901 82.6301 32.9201 82.6901 32.7901 82.8201C32.6601 82.9501 32.5901 83.1201 32.5901 83.3601V83.3501Z" fill="#141414"/>
<path d="M127.5 90.8701H125.49V71.8701C125.49 69.6601 123.69 67.8701 121.47 67.8701H8.03C5.82 67.8701 4.01 69.6601 4.01 71.8701V90.8701H2.01C0.9 90.8701 0 91.7701 0 92.8701V101.87C0 102.97 0.9 103.87 2.01 103.87H4.02V115.87C4.02 118.08 5.82 119.87 8.04 119.87H121.48C123.69 119.87 125.5 118.08 125.5 115.87V103.87H127.51C128.62 103.87 129.52 102.97 129.52 101.87V92.8701C129.52 91.7701 128.62 90.8701 127.51 90.8701H127.5ZM8.03 115.87V71.8701H121.48V92.8601V115.87H8.03Z" fill="#141414"/>
<path d="M129.56 63.3101L120.56 54.3101C120.48 54.2301 120.37 54.1801 120.28 54.1201C121.99 51.6301 123 48.6101 123 45.3701C123 36.8201 116.05 29.8701 107.5 29.8701C98.95 29.8701 92 36.8201 92 45.3701C92 53.9201 98.95 60.8701 107.5 60.8701C111.75 60.8701 115.6 59.1501 118.4 56.3701C118.42 56.3901 118.42 56.4101 118.44 56.4301L127.44 65.4301C127.73 65.7201 128.12 65.8701 128.5 65.8701C128.88 65.8701 129.27 65.7201 129.56 65.4301C130.15 64.8401 130.15 63.8901 129.56 63.3101ZM107.5 57.8701C100.61 57.8701 95 52.2601 95 45.3701C95 38.4801 100.61 32.8701 107.5 32.8701C114.39 32.8701 120 38.4801 120 45.3701C120 52.2601 114.39 57.8701 107.5 57.8701Z" fill="#141414"/>
<path d="M19.5 60.8701C10.95 60.8701 4 53.9201 4 45.3701C4 36.8201 10.95 29.8701 19.5 29.8701C28.05 29.8701 35 36.8201 35 45.3701C35 53.9201 28.05 60.8701 19.5 60.8701ZM19.5 32.8701C12.61 32.8701 7 38.4801 7 45.3701C7 52.2601 12.61 57.8701 19.5 57.8701C26.39 57.8701 32 52.2601 32 45.3701C32 38.4801 26.39 32.8701 19.5 32.8701Z" fill="#141414"/>
<path d="M17.7501 52.3701C17.3501 52.3701 16.9701 52.2101 16.6901 51.9301L12.3101 47.5501C11.7201 46.9601 11.7201 46.0101 12.3101 45.4301C12.9001 44.8501 13.8501 44.8401 14.4301 45.4301L17.7001 48.7001L25.3901 40.3501C25.9501 39.7401 26.9001 39.7001 27.5101 40.2601C28.1201 40.8201 28.1601 41.7701 27.6001 42.3801L18.8501 51.8801C18.5701 52.1801 18.1901 52.3501 17.7801 52.3601H17.7501V52.3701Z" fill="#141414"/>
<path fill-rule="evenodd" clip-rule="evenodd" d="M61.27 10.1799C59.5 10.2099 57.8 10.9699 56.58 12.2499C55.37 13.5399 54.72 15.2999 54.8 17.0599C54.8 17.4599 54.68 17.9199 54.45 18.3299C54.07 18.9999 53.46 19.4799 52.72 19.6899C51.99 19.8899 51.22 19.7999 50.55 19.4199C47.36 17.6699 43.35 18.8199 41.6 21.9899L40.11 24.6799C40.07 24.7499 40.04 24.8199 40.01 24.8899C38.43 28.0099 39.59 31.8799 42.65 33.6099C43.1 33.8599 43.46 34.2099 43.71 34.6299C44.1 35.2899 44.22 36.0799 44.04 36.8099C43.86 37.5499 43.39 38.1799 42.74 38.5699C41.26 39.4599 40.16 40.9299 39.74 42.6199C39.32 44.2999 39.6 46.1199 40.49 47.5999L42.18 50.3099C44.04 53.3799 48.08 54.3899 51.18 52.5299C51.59 52.2799 52.07 52.1399 52.55 52.1199H52.56C53.27 52.1099 54.01 52.3999 54.55 52.9199C55.1 53.4499 55.41 54.1699 55.42 54.9399C55.5 58.5699 58.5 61.4599 62.11 61.3999L65.2 61.3499C68.83 61.2899 71.73 58.2899 71.67 54.6599C71.67 54.2099 71.79 53.7499 72.02 53.3399C72.4 52.6599 73.02 52.1599 73.74 51.9599C74.46 51.7499 75.24 51.8499 75.9 52.2099C77.47 53.0499 79.29 53.2299 80.96 52.7299C82.62 52.2299 84.04 51.0599 84.86 49.5199L86.36 46.8299C88.11 43.6599 86.97 39.6699 83.81 37.9099C82.91 37.4099 82.35 36.4699 82.33 35.4499C82.31 34.4299 82.85 33.4599 83.72 32.9299C86.82 31.0599 87.82 27.0099 85.96 23.9099L84.24 21.1899C82.41 18.1199 78.36 17.0999 75.25 18.9499C74.83 19.2099 74.37 19.3499 73.89 19.3599C72.35 19.3899 71.04 18.1399 70.99 16.5799C70.97 14.8599 70.26 13.2099 69 11.9899C67.74 10.7699 66.08 10.1099 64.32 10.1399L61.23 10.1899L61.27 10.1799ZM61.33 13.8899L64.42 13.8399C65.19 13.8299 65.91 14.1099 66.46 14.6399C67.01 15.1699 67.31 15.8899 67.32 16.6499C67.43 20.2599 70.43 23.1199 74.01 23.0599C75.16 23.0299 76.25 22.6999 77.2 22.1099C78.53 21.3199 80.3 21.7599 81.11 23.1199L82.83 25.8399C83.62 27.1599 83.18 28.9199 81.83 29.7399C79.83 30.9499 78.6 33.1499 78.64 35.4999C78.68 37.8399 79.98 39.9999 82.03 41.1399C83.4 41.8999 83.9 43.6399 83.14 45.0199L81.63 47.7399C81.26 48.4399 80.64 48.9499 79.91 49.1699C79.19 49.3899 78.39 49.3099 77.71 48.9499C76.72 48.3899 75.57 48.1099 74.43 48.1299C73.86 48.1299 73.3 48.2199 72.75 48.3799C71.09 48.8599 69.66 49.9999 68.82 51.5199C68.28 52.4699 67.99 53.5799 68 54.6999C68.03 56.3099 66.76 57.6199 65.18 57.6399L62.09 57.6899C60.51 57.7199 59.2 56.4599 59.17 54.8799C59.15 53.1299 58.44 51.4899 57.17 50.2599C55.92 49.0499 54.19 48.3399 52.47 48.4199C51.34 48.4699 50.27 48.7899 49.32 49.3499C47.96 50.1599 46.19 49.7199 45.38 48.3799L43.69 45.6699C43.31 45.0499 43.19 44.2599 43.38 43.5199C43.56 42.7899 44.03 42.1499 44.68 41.7599C46.19 40.8499 47.26 39.4199 47.68 37.7099C48.1 36.0299 47.82 34.2199 46.93 32.7299C46.35 31.7499 45.5 30.9299 44.49 30.3799C43.14 29.6199 42.64 27.8699 43.39 26.4999C43.42 26.4499 43.45 26.3899 43.47 26.3299L44.87 23.7899C45.63 22.3999 47.38 21.8999 48.77 22.6599C50.27 23.5099 52.04 23.7399 53.74 23.2599C55.43 22.7899 56.83 21.6899 57.69 20.1599C58.24 19.1999 58.53 18.0899 58.52 16.9699C58.48 16.1299 58.77 15.3599 59.3 14.7999C59.83 14.2399 60.57 13.9099 61.35 13.8999L61.33 13.8899ZM63.1 27.3899C58.49 27.4699 54.8 31.2899 54.88 35.8999C54.96 40.5099 58.77 44.1999 63.38 44.1199C67.99 44.0399 71.68 40.2299 71.6 35.6099C71.52 30.9999 67.71 27.2999 63.1 27.3799V27.3899ZM63.16 31.0999C65.73 31.0599 67.85 33.1099 67.9 35.6799C67.94 38.2499 65.89 40.3699 63.32 40.4199C60.75 40.4699 58.63 38.4099 58.58 35.8399C58.54 33.2699 60.59 31.1399 63.16 31.0999Z" fill="#141414"/>
</g>
<defs>
<clipPath id="clip0_406_41245">
<rect width="130" height="130" fill="white"/>
</clipPath>
</defs>
</svg>
