<svg width="130" height="130" viewBox="0 0 130 130" fill="none" xmlns="http://www.w3.org/2000/svg">
<path d="M103.69 111.98H26.31C24.85 111.98 23.52 111.43 22.47 110.4C21.41 109.36 20.85 108.04 20.85 106.58V91.07C20.85 86.18 23.19 83.74 25.15 82.55C39.56 73.64 50.5 66.42 57.65 61.1C66.71 54.36 67.69 51.25 67.69 50.22C67.69 49.14 67.61 48.5 67.54 48.16C67.54 48.16 67.46 47.96 67 47.63C66.76 47.46 66.15 47.18 64.75 47.18C63.64 47.18 62.75 47.4 62.05 47.85C61.06 48.49 60.77 48.92 60.69 49.08C60.49 49.46 60.18 50.19 59.81 51.51C59.36 53.09 59.19 53.56 59.08 53.82C58.39 55.53 56.56 56.39 53.65 56.39H27.59C26.24 56.39 24.99 55.9 23.98 54.97C22.93 54 22.38 52.7 22.38 51.21C22.38 41.09 26.43 32.91 34.41 26.89C42.22 21 52.75 18.02 65.71 18.02C78.67 18.02 88.67 20.62 95.41 25.74C102.32 30.99 105.83 38.52 105.83 48.13C105.83 53.12 104.17 57.7 100.89 61.74C99.24 63.78 97.63 65.63 96.09 67.22C94.5 68.87 92.3 70.73 89.36 72.92C84.9 76.19 80.71 79.12 76.83 81.67H103.69C105.15 81.67 106.48 82.23 107.54 83.28C108.6 84.34 109.16 85.67 109.16 87.13V106.51C109.16 107.97 108.6 109.31 107.55 110.36C106.49 111.42 105.16 111.97 103.7 111.97L103.69 111.98ZM64.74 43.17C66.68 43.17 68.17 43.56 69.3 44.36C70.5 45.21 71.22 46.22 71.45 47.36C71.61 48.13 71.68 49.07 71.68 50.22C71.68 53.92 67.98 58.39 60.03 64.31C52.79 69.7 41.75 76.98 27.23 85.97C26.19 86.6 24.84 87.79 24.84 91.08V106.59C24.84 106.98 24.96 107.26 25.26 107.56C25.57 107.87 25.88 108 26.3 108H103.69C104.1 108 104.4 107.87 104.71 107.56C105.02 107.25 105.15 106.94 105.15 106.54V87.16C105.15 86.75 105.02 86.45 104.71 86.13C104.4 85.83 104.1 85.69 103.69 85.69H62.8L68.9 81.98C74.2 78.76 80.28 74.64 86.98 69.72C89.69 67.7 91.79 65.93 93.2 64.46C94.66 62.95 96.19 61.19 97.77 59.24C100.5 55.87 101.82 52.24 101.82 48.14C101.82 39.73 98.93 33.45 92.99 28.93C86.96 24.35 77.78 22.03 65.71 22.03C53.64 22.03 43.92 24.74 36.82 30.09C29.8 35.38 26.39 42.29 26.39 51.22C26.39 51.66 26.52 51.86 26.71 52.04C26.98 52.29 27.25 52.4 27.6 52.4H53.65C54.79 52.4 55.28 52.23 55.44 52.16L55.46 52.12C55.46 52.12 55.58 51.77 55.96 50.43C56.34 49.1 56.72 48.06 57.13 47.26C57.64 46.27 58.53 45.37 59.88 44.5C61.23 43.63 62.87 43.18 64.75 43.18L64.74 43.17Z" fill="#141414"/>
</svg>
