<svg width="130" height="130" viewBox="0 0 130 130" fill="none" xmlns="http://www.w3.org/2000/svg">
<path d="M123 118H10C7.79 118 6 116.095 6 113.742V23.2581C6 20.9055 7.79 19 10 19H123C125.21 19 127 20.9055 127 23.2581V113.742C127 116.095 125.21 118 123 118ZM10 23.2581V113.742H123V23.2581H10Z" fill="#141414"/>
<path d="M28.72 16L3 41.72V51.86L38.86 16H28.72Z" fill="#0359BC"/>
<path d="M38.86 16L3 51.86V62L49 16H38.86Z" fill="#F7D005"/>
<path d="M6 59.01L3 62L6 61V59.01Z" fill="#D6B116"/>
<path d="M49 16L46 19H48L49 16Z" fill="#D6B116"/>
<path d="M31.9592 72.4545H35.4677V81.8366C35.4677 82.9209 35.2096 83.8655 34.6935 84.6705C34.1774 85.4706 33.4577 86.0909 32.5344 86.5312C31.6112 86.9669 30.5387 87.1847 29.3171 87.1847C28.0813 87.1847 27.0018 86.9669 26.0785 86.5312C25.1552 86.0909 24.4379 85.4706 23.9265 84.6705C23.4151 83.8655 23.1594 82.9209 23.1594 81.8366V72.4545H26.6751V81.5312C26.6751 82.0331 26.784 82.4806 27.0018 82.8736C27.2243 83.2666 27.5344 83.5743 27.9322 83.7969C28.3299 84.0194 28.7915 84.1307 29.3171 84.1307C29.8427 84.1307 30.302 84.0194 30.695 83.7969C31.0927 83.5743 31.4028 83.2666 31.6254 82.8736C31.8479 82.4806 31.9592 82.0331 31.9592 81.5312V72.4545ZM37.6712 87V72.4545H41.1868V78.6051H41.3786L46.1868 72.4545H50.3274L45.1712 78.946L50.4197 87H46.2152L42.593 81.2827L41.1868 83.0582V87H37.6712ZM51.7141 87V72.4545H57.7227C58.8117 72.4545 59.7515 72.651 60.5423 73.044C61.3377 73.4323 61.9509 73.991 62.3817 74.7202C62.8126 75.4446 63.0281 76.304 63.0281 77.2983C63.0281 78.3068 62.8079 79.1638 62.3675 79.8693C61.9272 80.5701 61.3022 81.1051 60.4925 81.4744C59.6829 81.839 58.7241 82.0213 57.6161 82.0213H53.8164V79.2514H56.9627C57.493 79.2514 57.9357 79.1828 58.2908 79.0455C58.6507 78.9034 58.9229 78.6903 59.1076 78.4062C59.2923 78.1174 59.3846 77.7481 59.3846 77.2983C59.3846 76.8485 59.2923 76.4768 59.1076 76.1832C58.9229 75.8849 58.6507 75.6624 58.2908 75.5156C57.931 75.3641 57.4883 75.2884 56.9627 75.2884H55.2298V87H51.7141ZM59.9031 80.3523L63.5252 87H59.69L56.1388 80.3523H59.9031ZM68.1026 87H64.3242L69.2319 72.4545H73.9123L78.82 87H75.0415L71.6254 76.1193H71.5117L68.1026 87ZM67.5984 81.2756H75.4961V83.946H67.5984V81.2756ZM83.9016 72.4545V87H80.386V72.4545H83.9016ZM98.4879 72.4545V87H95.505L89.7166 78.6051H89.6243V87H86.1087V72.4545H89.1342L94.8587 80.8352H94.9794V72.4545H98.4879ZM100.699 87V72.4545H110.841V75.3097H104.214V78.2926H110.322V81.1548H104.214V84.1449H110.841V87H100.699Z" fill="#141414"/>
<path d="M34.2887 61V51.1818H36.1232V52.7798H36.2447C36.4492 52.2386 36.7837 51.8168 37.2482 51.5142C37.7127 51.2074 38.2688 51.054 38.9165 51.054C39.5728 51.054 40.1225 51.2074 40.5657 51.5142C41.0131 51.821 41.3434 52.2429 41.5565 52.7798H41.6587C41.8931 52.2557 42.266 51.8381 42.7773 51.527C43.2887 51.2116 43.8981 51.054 44.6055 51.054C45.4961 51.054 46.2227 51.3331 46.7852 51.8913C47.3519 52.4496 47.6353 53.2912 47.6353 54.4162V61H45.7241V54.5952C45.7241 53.9304 45.543 53.4489 45.1808 53.1506C44.8185 52.8523 44.386 52.7031 43.8832 52.7031C43.261 52.7031 42.7773 52.8949 42.4322 53.2784C42.087 53.6577 41.9144 54.1456 41.9144 54.7422V61H40.0096V54.4737C40.0096 53.9411 39.8434 53.5128 39.511 53.1889C39.1786 52.8651 38.7461 52.7031 38.2134 52.7031C37.8512 52.7031 37.5167 52.799 37.2099 52.9908C36.9073 53.1783 36.6623 53.4403 36.4748 53.777C36.2915 54.1136 36.1999 54.5036 36.1999 54.9467V61H34.2887ZM53.0542 61.2173C52.432 61.2173 51.8695 61.1023 51.3667 60.8722C50.8638 60.6378 50.4654 60.299 50.1713 59.8558C49.8816 59.4126 49.7367 58.8693 49.7367 58.2259C49.7367 57.6719 49.8432 57.2159 50.0563 56.858C50.2694 56.5 50.557 56.2166 50.9192 56.0078C51.2814 55.799 51.6863 55.6413 52.1337 55.5348C52.5811 55.4283 53.0371 55.3473 53.5016 55.2919C54.0897 55.2237 54.5669 55.1683 54.9334 55.1257C55.2999 55.0788 55.5662 55.0043 55.7324 54.902C55.8986 54.7997 55.9817 54.6335 55.9817 54.4034V54.3587C55.9817 53.8004 55.824 53.3679 55.5087 53.0611C55.1976 52.7543 54.7331 52.6009 54.1152 52.6009C53.4718 52.6009 52.9647 52.7436 52.5939 53.0291C52.2275 53.3104 51.9739 53.6236 51.8333 53.9688L50.0371 53.5597C50.2502 52.9631 50.5613 52.4815 50.9703 52.1151C51.3837 51.7443 51.8588 51.4759 52.3958 51.3097C52.9327 51.1392 53.4973 51.054 54.0897 51.054C54.4817 51.054 54.8972 51.1009 55.3361 51.1946C55.7793 51.2841 56.1926 51.4503 56.5762 51.6932C56.964 51.9361 57.2814 52.2834 57.5286 52.7351C57.7757 53.1825 57.8993 53.7642 57.8993 54.4801V61H56.0328V59.6577H55.9561C55.8326 59.9048 55.6472 60.1477 55.4 60.3864C55.1529 60.625 54.8354 60.8232 54.4476 60.9808C54.0598 61.1385 53.5953 61.2173 53.0542 61.2173ZM53.4696 59.6832C53.998 59.6832 54.4498 59.5788 54.8248 59.37C55.204 59.1612 55.4917 58.8885 55.6877 58.5518C55.888 58.2109 55.9881 57.8466 55.9881 57.4588V56.1932C55.9199 56.2614 55.7878 56.3253 55.5918 56.3849C55.4 56.4403 55.1806 56.4893 54.9334 56.532C54.6863 56.5703 54.4455 56.6065 54.2111 56.6406C53.9767 56.6705 53.7807 56.696 53.623 56.7173C53.2523 56.7642 52.9135 56.843 52.6067 56.9538C52.3042 57.0646 52.0613 57.2244 51.878 57.4332C51.699 57.6378 51.6096 57.9105 51.6096 58.2514C51.6096 58.7244 51.7843 59.0824 52.1337 59.3253C52.4831 59.5639 52.9284 59.6832 53.4696 59.6832ZM64.1204 61.1918C63.3278 61.1918 62.6204 60.9893 61.9982 60.5845C61.3803 60.1754 60.8945 59.5937 60.5408 58.8395C60.1914 58.081 60.0167 57.1712 60.0167 56.1101C60.0167 55.049 60.1935 54.1413 60.5472 53.3871C60.9052 52.6328 61.3952 52.0554 62.0174 51.6548C62.6396 51.2543 63.3448 51.054 64.1332 51.054C64.7425 51.054 65.2326 51.1562 65.6033 51.3608C65.9783 51.5611 66.2681 51.7955 66.4727 52.0639C66.6815 52.3324 66.8434 52.5689 66.9585 52.7734H67.0735V47.9091H68.9847V61H67.1183V59.4723H66.9585C66.8434 59.6811 66.6772 59.9197 66.4599 60.1882C66.2468 60.4567 65.9528 60.6911 65.5778 60.8913C65.2028 61.0916 64.717 61.1918 64.1204 61.1918ZM64.5423 59.5618C65.092 59.5618 65.5565 59.4169 65.9357 59.1271C66.3192 58.8331 66.609 58.4261 66.805 57.9062C67.0053 57.3864 67.1055 56.7812 67.1055 56.0909C67.1055 55.4091 67.0075 54.8125 66.8114 54.3011C66.6154 53.7898 66.3278 53.3913 65.9485 53.1058C65.5692 52.8203 65.1005 52.6776 64.5423 52.6776C63.967 52.6776 63.4876 52.8267 63.104 53.125C62.7205 53.4233 62.4308 53.8303 62.2347 54.3459C62.043 54.8615 61.9471 55.4432 61.9471 56.0909C61.9471 56.7472 62.0451 57.3374 62.2411 57.8615C62.4371 58.3857 62.7269 58.8011 63.1104 59.108C63.4982 59.4105 63.9755 59.5618 64.5423 59.5618ZM75.9441 61.1982C74.9767 61.1982 74.1436 60.9915 73.4448 60.5781C72.7502 60.1605 72.2132 59.5746 71.834 58.8203C71.459 58.0618 71.2715 57.1733 71.2715 56.1548C71.2715 55.1491 71.459 54.2628 71.834 53.4957C72.2132 52.7287 72.7417 52.13 73.4192 51.6996C74.101 51.2692 74.8979 51.054 75.8098 51.054C76.3638 51.054 76.9007 51.1456 77.4206 51.3288C77.9405 51.5121 78.4071 51.7997 78.8205 52.1918C79.2338 52.5838 79.5598 53.093 79.7985 53.7195C80.0371 54.3416 80.1564 55.098 80.1564 55.9886V56.6662H72.3517V55.2344H78.2836C78.2836 54.7315 78.1813 54.2862 77.9767 53.8984C77.7722 53.5064 77.4846 53.1974 77.1138 52.9716C76.7473 52.7457 76.3169 52.6328 75.8226 52.6328C75.2857 52.6328 74.8169 52.7649 74.4164 53.0291C74.0201 53.2891 73.7132 53.63 73.4959 54.0518C73.2828 54.4695 73.1763 54.9233 73.1763 55.4134V56.532C73.1763 57.1882 73.2914 57.7464 73.5215 58.2067C73.7559 58.6669 74.0819 59.0185 74.4995 59.2614C74.9171 59.5 75.405 59.6193 75.9632 59.6193C76.3255 59.6193 76.6557 59.5682 76.954 59.4659C77.2523 59.3594 77.5101 59.2017 77.7275 58.9929C77.9448 58.7841 78.111 58.5263 78.226 58.2195L80.035 58.5455C79.8901 59.0781 79.6301 59.5447 79.2551 59.9453C78.8844 60.3416 78.4178 60.6506 77.8553 60.8722C77.2971 61.0895 76.66 61.1982 75.9441 61.1982ZM87.0407 61V51.1818H88.9519V61H87.0407ZM88.0059 49.6669C87.6735 49.6669 87.388 49.5561 87.1493 49.3345C86.915 49.1087 86.7978 48.8402 86.7978 48.5291C86.7978 48.2138 86.915 47.9453 87.1493 47.7237C87.388 47.4979 87.6735 47.3849 88.0059 47.3849C88.3382 47.3849 88.6216 47.4979 88.856 47.7237C89.0946 47.9453 89.214 48.2138 89.214 48.5291C89.214 48.8402 89.0946 49.1087 88.856 49.3345C88.6216 49.5561 88.3382 49.6669 88.0059 49.6669ZM93.4343 55.1705V61H91.5231V51.1818H93.3576V52.7798H93.479C93.7049 52.2599 94.0586 51.8423 94.5401 51.527C95.0259 51.2116 95.6374 51.054 96.3746 51.054C97.0437 51.054 97.6296 51.1946 98.1325 51.4759C98.6353 51.7528 99.0252 52.1662 99.3022 52.7159C99.5792 53.2656 99.7177 53.9453 99.7177 54.755V61H97.8065V54.9851C97.8065 54.2734 97.6211 53.7173 97.2504 53.3168C96.8796 52.9119 96.3704 52.7095 95.7227 52.7095C95.2795 52.7095 94.8853 52.8054 94.5401 52.9972C94.1992 53.1889 93.9286 53.4702 93.7283 53.8409C93.5323 54.2074 93.4343 54.6506 93.4343 55.1705Z" fill="#141414"/>
</svg>
