<svg width="829" height="76" viewBox="0 0 829 76" fill="none" xmlns="http://www.w3.org/2000/svg">
<path d="M822.77 19H795.65C792.53 19 790 21.5274 790 24.645C790 27.7626 792.53 30.29 795.65 30.29H822.77C825.89 30.29 828.42 27.7626 828.42 24.645C828.42 21.5274 825.89 19 822.77 19Z" fill="#EC5959"/>
<path d="M822.77 47.02H795.65C792.53 47.02 790 49.5474 790 52.665C790 55.7827 792.53 58.31 795.65 58.31H822.77C825.89 58.31 828.42 55.7827 828.42 52.665C828.42 49.5474 825.89 47.02 822.77 47.02Z" fill="#EC5959"/>
<path d="M798.44 4H793.13C790.19 4 789.43 4.74541 789.43 5.66736V9.07075H757.02C750.95 9.07075 746.03 13.8963 746.03 19.8498V23.9299H732.14C727.65 23.9397 724 27.5197 724 31.9235V45.488C724 49.9016 727.65 53.4717 732.14 53.4717H746.02V57.6401C746.02 63.5936 750.94 68.4191 757.01 68.4191H789.42V70.9986C789.42 71.9206 790.18 72.666 791.12 72.666H798.43C799.37 72.666 800.13 71.9206 800.13 70.9986V5.66736C800.13 4.74541 799.37 4 798.43 4H798.44Z" fill="white" stroke="#EC5959" stroke-width="6"/>
<path d="M489 33H723V43H489L492 40.5L489 39L492 37.5L489 36L491.5 34.5L489 33Z" fill="#EC5959"/>
<path d="M0 33H333L329.5 34.5L333 36L329.5 37.5L333 39.5L330 41L333 43H0V33Z" fill="#EC5959"/>
<circle cx="374" cy="68" r="5" stroke="#EC5959" stroke-width="2"/>
<circle cx="426" cy="44" r="4" stroke="#EC5959" stroke-width="2"/>
<path d="M364 0L364 7" stroke="#EC5959" stroke-width="3"/>
<path d="M364 11L364 18" stroke="#EC5959" stroke-width="3"/>
<path d="M362 9L355 9" stroke="#EC5959" stroke-width="3"/>
<path d="M373 9L366 9" stroke="#EC5959" stroke-width="3"/>
<path d="M459 55L459 62" stroke="#EC5959" stroke-width="3"/>
<path d="M459 66L459 73" stroke="#EC5959" stroke-width="3"/>
<path d="M457 64L450 64" stroke="#EC5959" stroke-width="3"/>
<path d="M468 64L461 64" stroke="#EC5959" stroke-width="3"/>
<path d="M454.795 13.8179C455.117 14.2678 455.515 14.708 456.006 15.1077C455.529 15.5471 455.121 16.0204 454.78 16.4734C454.447 15.9444 454.018 15.4106 453.473 14.942C453.931 14.6283 454.384 14.2577 454.795 13.8179Z" stroke="#EC5959" stroke-width="3"/>
<path d="M387.795 30.8179C388.117 31.2678 388.515 31.708 389.006 32.1077C388.529 32.5471 388.121 33.0204 387.78 33.4734C387.447 32.9444 387.018 32.4106 386.473 31.942C386.931 31.6283 387.384 31.2577 387.795 30.8179Z" stroke="#EC5959" stroke-width="3"/>
</svg>
