<svg width="456" height="155" viewBox="0 0 456 155" fill="none" xmlns="http://www.w3.org/2000/svg">
<path d="M119.384 84.6458H137.12C138.751 84.6458 140.11 85.1903 141.197 86.2792C142.284 87.368 142.828 88.6611 142.828 90.1583V120.579C142.828 122.076 142.284 123.369 141.197 124.458C140.11 125.547 138.818 126.092 137.324 126.092H119.384V143.446C119.384 144.943 118.84 146.236 117.753 147.325C116.666 148.414 115.375 148.958 113.88 148.958H75.9621C74.4671 148.958 73.176 148.414 72.0888 147.325C71.0015 146.236 70.4579 144.943 70.4579 143.446V126.092H9.50418C8.00922 126.092 6.71811 125.547 5.63087 124.458C4.54362 123.369 4 122.076 4 120.579V91.3833C4 89.0694 4.74748 86.9597 6.24245 85.0542L63.9344 9.5125C65.8371 7.19861 68.3514 6.04166 71.4772 6.04166H113.88C115.375 6.04166 116.666 6.58611 117.753 7.675C118.84 8.76389 119.384 10.0569 119.384 11.5542V84.6458ZM71.8849 86.8917V57.4917L50.4798 86.8917H71.8849Z" fill="white"/>
<path d="M217.263 56.675V97.7125C217.263 101.66 218.215 104.858 220.117 107.308C222.02 109.758 224.806 110.983 228.475 110.983C232.145 110.983 234.931 109.758 236.834 107.308C238.736 104.858 239.688 101.66 239.688 97.7125V56.675C239.688 47.8278 235.95 43.4042 228.475 43.4042C221.001 43.4042 217.263 47.8278 217.263 56.675ZM292.691 58.7167V96.0792C292.691 113.637 286.915 127.181 275.363 136.708C263.947 146.236 248.318 151 228.475 151C208.633 151 192.936 146.236 181.384 136.708C169.968 127.044 164.26 113.365 164.26 95.6708V59.125C164.26 41.5667 170.172 28.0236 181.996 18.4958C193.955 8.83194 209.449 4 228.475 4C247.502 4 262.928 8.83194 274.751 18.4958C286.711 28.0236 292.691 41.4306 292.691 58.7167Z" fill="white"/>
<path d="M428.556 84.6458H446.292C447.923 84.6458 449.282 85.1903 450.369 86.2792C451.456 87.368 452 88.6611 452 90.1583V120.579C452 122.076 451.456 123.369 450.369 124.458C449.282 125.547 447.991 126.092 446.496 126.092H428.556V143.446C428.556 144.943 428.013 146.236 426.925 147.325C425.838 148.414 424.547 148.958 423.052 148.958H385.134C383.639 148.958 382.348 148.414 381.261 147.325C380.174 146.236 379.63 144.943 379.63 143.446V126.092H318.676C317.181 126.092 315.89 125.547 314.803 124.458C313.716 123.369 313.172 122.076 313.172 120.579V91.3833C313.172 89.0694 313.92 86.9597 315.415 85.0542L373.107 9.5125C375.009 7.19861 377.524 6.04166 380.649 6.04166H423.052C424.547 6.04166 425.838 6.58611 426.925 7.675C428.013 8.76389 428.556 10.0569 428.556 11.5542V84.6458ZM381.057 86.8917V57.4917L359.652 86.8917H381.057Z" fill="white"/>
<path d="M119.384 84.6458H137.12C138.751 84.6458 140.11 85.1903 141.197 86.2792C142.284 87.368 142.828 88.6611 142.828 90.1583V120.579C142.828 122.076 142.284 123.369 141.197 124.458C140.11 125.547 138.818 126.092 137.324 126.092H119.384V143.446C119.384 144.943 118.84 146.236 117.753 147.325C116.666 148.414 115.375 148.958 113.88 148.958H75.9621C74.4671 148.958 73.176 148.414 72.0888 147.325C71.0015 146.236 70.4579 144.943 70.4579 143.446V126.092H9.50418C8.00922 126.092 6.71811 125.547 5.63087 124.458C4.54362 123.369 4 122.076 4 120.579V91.3833C4 89.0694 4.74748 86.9597 6.24245 85.0542L63.9344 9.5125C65.8371 7.19861 68.3514 6.04166 71.4772 6.04166H113.88C115.375 6.04166 116.666 6.58611 117.753 7.675C118.84 8.76389 119.384 10.0569 119.384 11.5542V84.6458ZM71.8849 86.8917V57.4917L50.4798 86.8917H71.8849Z" stroke="#EC5959" stroke-width="8"/>
<path d="M217.263 56.675V97.7125C217.263 101.66 218.215 104.858 220.117 107.308C222.02 109.758 224.806 110.983 228.475 110.983C232.145 110.983 234.931 109.758 236.834 107.308C238.736 104.858 239.688 101.66 239.688 97.7125V56.675C239.688 47.8278 235.95 43.4042 228.475 43.4042C221.001 43.4042 217.263 47.8278 217.263 56.675ZM292.691 58.7167V96.0792C292.691 113.637 286.915 127.181 275.363 136.708C263.947 146.236 248.318 151 228.475 151C208.633 151 192.936 146.236 181.384 136.708C169.968 127.044 164.26 113.365 164.26 95.6708V59.125C164.26 41.5667 170.172 28.0236 181.996 18.4958C193.955 8.83194 209.449 4 228.475 4C247.502 4 262.928 8.83194 274.751 18.4958C286.711 28.0236 292.691 41.4306 292.691 58.7167Z" stroke="#EC5959" stroke-width="8"/>
<path d="M428.556 84.6458H446.292C447.923 84.6458 449.282 85.1903 450.369 86.2792C451.456 87.368 452 88.6611 452 90.1583V120.579C452 122.076 451.456 123.369 450.369 124.458C449.282 125.547 447.991 126.092 446.496 126.092H428.556V143.446C428.556 144.943 428.013 146.236 426.925 147.325C425.838 148.414 424.547 148.958 423.052 148.958H385.134C383.639 148.958 382.348 148.414 381.261 147.325C380.174 146.236 379.63 144.943 379.63 143.446V126.092H318.676C317.181 126.092 315.89 125.547 314.803 124.458C313.716 123.369 313.172 122.076 313.172 120.579V91.3833C313.172 89.0694 313.92 86.9597 315.415 85.0542L373.107 9.5125C375.009 7.19861 377.524 6.04166 380.649 6.04166H423.052C424.547 6.04166 425.838 6.58611 426.925 7.675C428.013 8.76389 428.556 10.0569 428.556 11.5542V84.6458ZM381.057 86.8917V57.4917L359.652 86.8917H381.057Z" stroke="#EC5959" stroke-width="8"/>
</svg>
