<svg width="24" height="17" viewBox="0 0 24 17" fill="none" xmlns="http://www.w3.org/2000/svg">
<g clip-path="url(#clip0_901_2737)">
<path d="M1.99454 0.000684101H21.7279C22.085 -0.013189 22.4401 0.0600278 22.7625 0.214017L21.6959 1.28068L12.6292 10.3473C12.5516 10.4491 12.4515 10.5315 12.3368 10.5882C12.2221 10.645 12.0958 10.6745 11.9679 10.6745C11.8399 10.6745 11.7137 10.645 11.599 10.5882C11.4843 10.5315 11.3842 10.4491 11.3065 10.3473L1.41321 0.384684L1.24788 0.208684C1.47868 0.0858708 1.73349 0.0148871 1.99454 0.000684101V0.000684101ZM0.117211 15.4673C0.0967511 15.3378 0.0572108 15.212 -0.00012207 15.094L-0.00012207 1.76068C0.0425446 1.63268 0.0958779 1.50468 0.133211 1.37135C0.170545 1.23802 0.229211 1.17402 0.378545 1.33402C1.10388 2.07535 1.84521 2.80602 2.57588 3.54202C4.17588 5.14202 5.71721 6.69935 7.29588 8.26735C7.43455 8.40602 7.43455 8.47002 7.29588 8.60868C4.99543 10.902 2.70032 13.2025 0.410545 15.51C0.213211 15.7073 0.218545 15.702 0.117211 15.4673ZM21.9839 16.8967H2.25054C1.89026 16.9142 1.53168 16.8369 1.21054 16.6727C1.85588 16.038 2.49054 15.4247 3.11454 14.8007C4.83899 13.0798 6.55988 11.3536 8.27721 9.62202C8.41055 9.48868 8.47454 9.46735 8.61854 9.62202C9.18921 10.2194 9.78121 10.8007 10.3625 11.3873C10.5709 11.614 10.8239 11.7949 11.1058 11.9186C11.3876 12.0424 11.6921 12.1063 11.9999 12.1063C12.3077 12.1063 12.6121 12.0424 12.894 11.9186C13.1758 11.7949 13.4289 11.614 13.6372 11.3873L15.4239 9.59535C15.4985 9.51535 15.5465 9.45668 15.6585 9.56868C18.0194 11.9118 20.3679 14.2585 22.7039 16.6087C22.7039 16.6087 22.7039 16.6513 22.7465 16.678C22.5149 16.7914 22.2628 16.8567 22.0052 16.87L21.9839 16.8967ZM23.8399 15.526C23.7812 15.686 23.7332 15.7073 23.6052 15.574C22.8692 14.8273 22.1279 14.0913 21.3919 13.35C19.8399 11.734 18.2719 10.1714 16.6932 8.59802C16.5599 8.46468 16.5705 8.40068 16.6932 8.27802C19.0008 5.9598 21.303 3.65402 23.5999 1.36068C23.7812 1.17402 23.7812 1.17402 23.8772 1.43002C23.9633 1.68042 24.0048 1.94396 23.9999 2.20868V8.46468C23.9999 10.534 23.9999 12.6033 23.9999 14.6727C23.9989 14.9539 23.9521 15.2332 23.8612 15.4993L23.8399 15.526Z" fill="#141414"/>
</g>
<defs>
<clipPath id="clip0_901_2737">
<rect width="24" height="16.8747" fill="white" transform="translate(-0.00012207 0.000732422)"/>
</clipPath>
</defs>
</svg>
