<svg width="22" height="19" viewBox="0 0 22 19" fill="none" xmlns="http://www.w3.org/2000/svg">
<g clip-path="url(#clip0_901_2742)">
<path d="M21.9181 1.72737C21.6207 3.20943 21.2976 4.68635 20.9848 6.1684C20.1985 9.84361 19.4156 13.5205 18.6361 17.1992C18.354 18.5325 17.6105 18.8197 16.5284 18.0146C14.9899 16.8966 13.4925 15.7838 11.9848 14.6556C11.7746 14.4966 11.6617 14.512 11.472 14.6966C10.7335 15.4299 9.97968 16.1428 9.23097 16.8658C9.08565 17.0211 8.91146 17.1465 8.71815 17.2351C8.30789 17.3992 8.24635 17.3581 8.27712 16.9171C8.37968 15.3787 8.48738 13.8966 8.57968 12.3838C8.59055 12.2996 8.619 12.2187 8.66317 12.1463C8.70735 12.0738 8.76626 12.0115 8.83609 11.9633L17.3387 4.27096C17.554 4.08122 17.7694 3.88635 17.9797 3.68635C18.0566 3.60943 18.1797 3.52737 18.1028 3.38891C18.0258 3.25045 17.8925 3.2966 17.7797 3.31199C17.5366 3.36992 17.3091 3.48017 17.113 3.63507C13.4686 5.93934 9.82413 8.24361 6.17968 10.5479C6.06091 10.635 5.92242 10.6914 5.77657 10.712C5.63071 10.7325 5.48203 10.7167 5.34379 10.6658C3.84122 10.1787 2.33866 9.74276 0.836094 9.22994C0.471992 9.12737 0.0360941 9.01455 0.000196691 8.5684C-0.0357007 8.12225 0.384812 7.89148 0.748915 7.74789C2.33524 7.11883 3.92498 6.50002 5.51815 5.89148L20.1746 0.235066C20.6566 0.0453227 21.154 -0.180318 21.6207 0.235066C22.0874 0.650451 22.0515 1.19917 21.9181 1.72737Z" fill="#141414"/>
</g>
<defs>
<clipPath id="clip0_901_2742">
<rect width="22" height="18.4615" fill="white" transform="translate(0.00012207 -0.000732422)"/>
</clipPath>
</defs>
</svg>
