<svg width="36" height="36" viewBox="0 0 36 36" fill="none" xmlns="http://www.w3.org/2000/svg">
<path d="M20.5825 17.9984L28.4582 10.1399C28.8031 9.79497 28.9969 9.32714 28.9969 8.83932C28.9969 8.3515 28.8031 7.88366 28.4582 7.53872C28.1133 7.19378 27.6456 7 27.1578 7C26.6701 7 26.2023 7.19378 25.8574 7.53872L18 15.4156L10.1426 7.53872C9.7977 7.19378 9.32993 7 8.84218 7C8.35443 7 7.88666 7.19378 7.54177 7.53872C7.19688 7.88366 7.00313 8.3515 7.00313 8.83932C7.00313 9.32714 7.19688 9.79497 7.54177 10.1399L15.4175 17.9984L7.54177 25.857C7.3701 26.0273 7.23385 26.2299 7.14086 26.4531C7.04787 26.6763 7 26.9157 7 27.1576C7 27.3994 7.04787 27.6388 7.14086 27.862C7.23385 28.0853 7.3701 28.2879 7.54177 28.4581C7.71204 28.6298 7.91461 28.7661 8.13781 28.8591C8.361 28.9521 8.6004 29 8.84218 29C9.08397 29 9.32337 28.9521 9.54656 28.8591C9.76975 28.7661 9.97233 28.6298 10.1426 28.4581L18 20.5813L25.8574 28.4581C26.0277 28.6298 26.2302 28.7661 26.4534 28.8591C26.6766 28.9521 26.916 29 27.1578 29C27.3996 29 27.639 28.9521 27.8622 28.8591C28.0854 28.7661 28.288 28.6298 28.4582 28.4581C28.6299 28.2879 28.7662 28.0853 28.8591 27.862C28.9521 27.6388 29 27.3994 29 27.1576C29 26.9157 28.9521 26.6763 28.8591 26.4531C28.7662 26.2299 28.6299 26.0273 28.4582 25.857L20.5825 17.9984Z" fill="white"/>
</svg>
