<svg width="44" height="44" viewBox="0 0 44 44" fill="none" xmlns="http://www.w3.org/2000/svg">
<path d="M22 0.000488281C17.6488 0.000488281 13.3953 1.29077 9.77746 3.70816C6.15958 6.12555 3.33979 9.56148 1.67466 13.5815C0.00953221 17.6014 -0.426141 22.0249 0.422734 26.2925C1.27161 30.5601 3.36691 34.4801 6.44366 37.5568C9.52042 40.6336 13.4404 42.7289 17.708 43.5778C21.9756 44.4266 26.3991 43.991 30.419 42.3258C34.439 40.6607 37.875 37.8409 40.2923 34.223C42.7097 30.6051 44 26.3517 44 22.0005C44 16.1657 41.6822 10.5699 37.5564 6.44414C33.4306 2.31834 27.8348 0.000488281 22 0.000488281V0.000488281ZM27.3007 18.3252C27.1592 19.4537 27.0402 20.5873 26.9435 21.7261C26.9435 21.9643 26.8504 22.016 26.6226 22.016C25.7529 22.016 24.8781 22.016 24.0344 22.016C23.7807 22.016 23.7186 22.0833 23.7238 22.3318C23.7238 24.1384 23.7238 25.9553 23.7238 27.7515C23.7238 29.5478 23.7238 31.3181 23.7238 33.0988C23.7238 33.3991 23.6409 33.4508 23.3666 33.4457C22.0466 33.4457 20.7214 33.4457 19.4066 33.4457C19.065 33.4457 18.9511 33.3835 18.9562 33.016C18.9562 29.4753 18.9562 25.9398 18.9562 22.3991C18.9562 22.073 18.8734 21.9953 18.5577 22.0108C18.04 22.0419 17.5224 22.0108 17.0047 22.0108C16.7252 22.0108 16.6734 21.928 16.6786 21.6692C16.6786 20.5407 16.6786 19.4123 16.6786 18.289C16.6786 18.0457 16.7252 17.9525 16.9892 17.9628C17.5379 17.9628 18.0918 17.9628 18.6405 17.9628C18.8838 17.9628 18.9355 17.8904 18.9407 17.6574C18.9407 16.7101 18.8786 15.7577 18.9718 14.8155C19.2513 12.1186 20.8353 10.633 23.5426 10.5553C24.6814 10.5243 25.8202 10.5553 26.9642 10.5553C27.1765 10.5553 27.2489 10.6174 27.2489 10.84C27.2489 11.9633 27.2489 13.0918 27.2489 14.2203C27.2489 14.4584 27.1609 14.4894 26.9591 14.4894C26.2395 14.4894 25.52 14.4894 24.8057 14.4894C24.6546 14.4671 24.5004 14.4802 24.3552 14.5278C24.2101 14.5754 24.0781 14.6562 23.9696 14.7637C23.8611 14.8712 23.7791 15.0025 23.7301 15.1471C23.6812 15.2918 23.6666 15.4459 23.6875 15.5972C23.6875 16.2908 23.6875 16.9793 23.6875 17.6678C23.6875 17.9163 23.7652 17.9628 23.9929 17.9577C24.9817 17.9577 25.9652 17.9577 26.9539 17.9577C27.2438 17.9628 27.337 18.0146 27.3007 18.3252Z" fill="white"/>
</svg>
