<svg width="256" height="63" viewBox="0 0 256 63" fill="none" xmlns="http://www.w3.org/2000/svg">
<path d="M38.4577 1.74951C32.1359 32.6283 10.1851 44.7279 0 46.9179C21.0727 46.9179 28.4481 57.5941 29.5018 62.9322L38.4577 1.74951Z" fill="white" fill-opacity="0.4"/>
<path d="M75.1682 42.7051C47.1127 40.0771 34.3438 53.9288 31.4663 61.1831L40.6383 0.000488281C43.2281 22.3384 64.7373 37.7777 75.1682 42.7051Z" fill="white"/>
<path d="M106.8 16.4902H100.186V30.3611L106.8 23.8005V16.4902ZM127.916 45.3568L114.453 31.9544L127.916 18.5989L130.041 16.4902H120.688L110.815 26.2373V26.2842L100.186 36.828V47.4187H106.8V39.546L109.776 36.5937L120.31 47.0906L120.688 47.4187H130.041L127.916 45.3568Z" fill="white"/>
<path d="M156.278 16.4902V33.454C156.278 37.4372 153.065 40.7644 149.145 40.8581C149.05 40.8581 148.956 40.8581 148.861 40.8581C148.767 40.8581 148.672 40.8581 148.578 40.8581C144.657 40.7644 141.445 37.3903 141.445 33.454V16.4902H134.831V35.797C134.831 38.3276 135.729 40.6706 137.382 42.4514C138.044 43.1543 138.705 43.7635 139.461 44.3258C142.153 46.3409 145.413 47.4187 148.861 47.4187C152.31 47.4187 155.522 46.3409 158.262 44.3258C159.018 43.7635 159.679 43.1543 160.293 42.4982C161.994 40.7175 162.891 38.3276 162.891 35.8439V16.4902H156.278Z" fill="white"/>
<path d="M187.187 16.9588C187.187 16.9588 186.761 16.8182 186.1 16.6776C185.439 16.5839 184.73 16.4902 184.73 16.4902H167.677V17.7086V22.2487H174.498H183.03V22.2956H184.116L184.163 22.2487C184.211 22.2487 184.73 22.4099 184.73 22.4099C186.336 22.4099 186.572 24.0817 186.572 25.3001C186.572 26.5654 185.58 28.2416 184.305 28.2416H174.29H167.677V47.4187H174.29V34.1569H184.966C184.966 34.1569 185.155 34.1569 186.336 33.8757C187.517 33.5946 187.564 33.5477 187.564 33.5477C188.793 33.0322 189.926 32.2824 190.824 31.2984C192.383 29.7051 193.186 27.5494 193.186 25.3001C193.186 21.4575 190.729 18.1772 187.187 16.9588Z" fill="white"/>
<path d="M210.897 16.5839C202.3 16.5839 195.356 23.5194 195.356 32.0013C195.356 40.53 202.3 47.4187 210.897 47.4187C219.448 47.4187 226.439 40.53 226.439 32.0013C226.439 23.5194 219.448 16.5839 210.897 16.5839ZM219.92 32.0013C219.92 36.9686 215.858 40.9987 210.897 40.9987C205.89 40.9987 201.828 36.9686 201.828 32.0013C201.828 27.0808 205.89 23.0508 210.897 23.0508C215.858 23.0508 219.92 27.0808 219.92 32.0013Z" fill="white"/>
<path d="M237.814 40.8581V16.2559H231.2V47.4187H256.001V40.8581H237.814Z" fill="white"/>
</svg>
