<svg width="104" height="21" viewBox="0 0 104 21" fill="none" xmlns="http://www.w3.org/2000/svg">
<path d="M4.41381 0.156376H0V9.41387L4.41381 5.03533V0.156376ZM18.5065 19.422L9.52121 10.4772L18.5065 1.56377L19.9252 0.156376H13.6828L7.09362 6.66165V6.69292L0 13.7299V20.7981H4.41381V15.5438L6.40002 13.5735L13.4306 20.5792L13.6828 20.7981H19.9252L18.5065 19.422Z" fill="white"/>
<path d="M37.4353 0.156376V11.478C37.4353 14.1364 35.2915 16.357 32.6747 16.4195C32.6117 16.4195 32.5486 16.4195 32.4856 16.4195C32.4225 16.4195 32.3595 16.4195 32.2964 16.4195C29.6796 16.357 27.5358 14.1052 27.5358 11.478V0.156376H23.122V13.0418C23.122 14.7307 23.721 16.2944 24.8245 17.4829C25.2658 17.952 25.7072 18.3586 26.2117 18.7339C28.0087 20.0788 30.1841 20.7981 32.4856 20.7981C34.787 20.7981 36.9309 20.0788 38.7595 18.7339C39.2639 18.3586 39.7053 17.952 40.1151 17.5142C41.2501 16.3257 41.8491 14.7307 41.8491 13.0731V0.156376H37.4353Z" fill="white"/>
<path d="M58.064 0.469129C58.064 0.469129 57.7802 0.375303 57.3388 0.281478C56.8975 0.218926 56.4246 0.156376 56.4246 0.156376H45.0432V0.969536V3.99963H49.5955H55.2896V4.03091H56.0147L56.0462 3.99963C56.0778 3.99963 56.4246 4.10719 56.4246 4.10719C57.4965 4.10719 57.6541 5.22298 57.6541 6.03614C57.6541 6.88057 56.992 7.99927 56.1408 7.99927H49.457H45.0432V20.7981H49.457V11.9472H56.5822C56.5822 11.9472 56.7083 11.9472 57.4965 11.7595C58.2847 11.5719 58.3162 11.5406 58.3162 11.5406C59.1359 11.1966 59.8925 10.6962 60.4916 10.0394C61.532 8.97602 62.0679 7.53735 62.0679 6.03614C62.0679 3.47156 60.4285 1.28229 58.064 0.469129Z" fill="white"/>
<path d="M73.8886 0.218926C68.1507 0.218926 63.5162 4.84767 63.5162 10.5085C63.5162 16.2006 68.1507 20.7981 73.8886 20.7981C79.5951 20.7981 84.2611 16.2006 84.2611 10.5085C84.2611 4.84767 79.5951 0.218926 73.8886 0.218926ZM79.9103 10.5085C79.9103 13.8237 77.199 16.5134 73.8886 16.5134C70.5468 16.5134 67.8354 13.8237 67.8354 10.5085C67.8354 7.2246 70.5468 4.53492 73.8886 4.53492C77.199 4.53492 79.9103 7.2246 79.9103 10.5085Z" fill="white"/>
<path d="M91.8525 16.4195V0H87.4387V20.7981H103.99V16.4195H91.8525Z" fill="white"/>
</svg>
