<svg width="156" height="32" viewBox="0 0 156 32" fill="none" xmlns="http://www.w3.org/2000/svg">
<path d="M6.61342 0.234307H0V14.1053L6.61342 7.54468V0.234307ZM27.7291 29.1009L14.2661 15.6986L27.7291 2.34307L29.8549 0.234307H20.5016L10.6287 9.98147V10.0283L0 20.5721V31.1628H6.61342V23.2901L9.58947 20.3378L20.1237 30.8348L20.5016 31.1628H29.8549L27.7291 29.1009Z" fill="white"/>
<path d="M56.0912 0.234307V17.1981C56.0912 21.1813 52.879 24.5085 48.9582 24.6022C48.8637 24.6022 48.7692 24.6022 48.6747 24.6022C48.5803 24.6022 48.4858 24.6022 48.3913 24.6022C44.4705 24.5085 41.2582 21.1345 41.2582 17.1981V0.234307H34.6448V19.5412C34.6448 22.0717 35.5424 24.4148 37.1957 26.1955C37.8571 26.8984 38.5184 27.5076 39.2742 28.07C41.9668 30.085 45.2263 31.1628 48.6747 31.1628C52.1232 31.1628 55.3354 30.085 58.0752 28.07C58.8311 27.5076 59.4924 26.8984 60.1065 26.2424C61.8071 24.4616 62.7046 22.0717 62.7046 19.5881V0.234307H56.0912Z" fill="white"/>
<path d="M87.0001 0.70292C87.0001 0.70292 86.575 0.562335 85.9136 0.421752C85.2523 0.328028 84.5437 0.234307 84.5437 0.234307H67.4905V1.4527V5.99285H74.3113H82.8431V6.03971H83.9296L83.9768 5.99285C84.0241 5.99285 84.5437 6.154 84.5437 6.154C86.1498 6.154 86.386 7.82585 86.386 9.04424C86.386 10.3095 85.394 11.9857 84.1185 11.9857H74.1039H67.4905V31.1628H74.1039V17.901H84.7799C84.7799 17.901 84.9688 17.901 86.1498 17.6199C87.3308 17.3387 87.378 17.2918 87.378 17.2918C88.6062 16.7764 89.74 16.0266 90.6375 15.0425C92.1964 13.4492 92.9994 11.2936 92.9994 9.04424C92.9994 5.20161 90.543 1.92132 87.0001 0.70292Z" fill="white"/>
<path d="M110.711 0.328028C102.114 0.328028 95.1695 7.26351 95.1695 15.7454C95.1695 24.2742 102.114 31.1628 110.711 31.1628C119.261 31.1628 126.253 24.2742 126.253 15.7454C126.253 7.26351 119.261 0.328028 110.711 0.328028ZM119.734 15.7454C119.734 20.7127 115.671 24.7428 110.711 24.7428C105.704 24.7428 101.641 20.7127 101.641 15.7454C101.641 10.825 105.704 6.7949 110.711 6.7949C115.671 6.7949 119.734 10.825 119.734 15.7454Z" fill="white"/>
<path d="M137.627 24.6022V0H131.014V31.1628H155.814V24.6022H137.627Z" fill="white"/>
</svg>
