<svg width="24" height="24" viewBox="0 0 24 24" fill="none" xmlns="http://www.w3.org/2000/svg">
<g clip-path="url(#clip0_922_3868)">
<path d="M4.19152 5.35441H20.636C20.9335 5.34285 21.2295 5.40386 21.4982 5.53219L20.6093 6.42108L13.0537 13.9766C12.989 14.0614 12.9056 14.1301 12.8101 14.1774C12.7145 14.2247 12.6093 14.2493 12.5026 14.2493C12.396 14.2493 12.2908 14.2247 12.1952 14.1774C12.0996 14.1301 12.0162 14.0614 11.9515 13.9766L3.70707 5.67441L3.5693 5.52774C3.76163 5.4254 3.97397 5.36625 4.19152 5.35441ZM2.62707 18.2433C2.61002 18.1353 2.57707 18.0305 2.5293 17.9322V6.82108C2.56485 6.71441 2.6093 6.60774 2.64041 6.49663C2.67152 6.38552 2.72041 6.33219 2.84485 6.46552C3.4493 7.0833 4.06707 7.69219 4.67596 8.30552C6.0093 9.63886 7.29374 10.9366 8.6093 12.2433C8.72485 12.3589 8.72485 12.4122 8.6093 12.5277C6.69226 14.4389 4.77967 16.3559 2.87152 18.2789C2.70707 18.4433 2.71152 18.4389 2.62707 18.2433ZM20.8493 19.4344H4.40485C4.10462 19.449 3.8058 19.3846 3.53819 19.2477C4.07596 18.7189 4.60485 18.2077 5.12485 17.6877C6.56189 16.2537 7.99596 14.8152 9.42707 13.3722C9.53819 13.2611 9.59152 13.2433 9.71152 13.3722C10.1871 13.87 10.6804 14.3544 11.1649 14.8433C11.3384 15.0321 11.5493 15.1829 11.7842 15.286C12.0191 15.3891 12.2728 15.4424 12.5293 15.4424C12.7858 15.4424 13.0395 15.3891 13.2744 15.286C13.5092 15.1829 13.7201 15.0321 13.8937 14.8433L15.3826 13.35C15.4449 13.2833 15.4849 13.2344 15.5782 13.3277C17.5456 15.2803 19.5026 17.2359 21.4493 19.1944C21.4493 19.1944 21.4493 19.23 21.4849 19.2522C21.2918 19.3467 21.0817 19.4011 20.8671 19.4122L20.8493 19.4344ZM22.396 18.2922C22.3471 18.4255 22.3071 18.4433 22.2004 18.3322C21.5871 17.71 20.9693 17.0966 20.356 16.4789C19.0626 15.1322 17.756 13.83 16.4404 12.5189C16.3293 12.4077 16.3382 12.3544 16.4404 12.2522C18.3634 10.3203 20.2819 8.39886 22.196 6.48774C22.3471 6.33219 22.3471 6.33219 22.4271 6.54552C22.4988 6.75419 22.5334 6.9738 22.5293 7.19441V12.4077C22.5293 14.1322 22.5293 15.8566 22.5293 17.5811C22.5285 17.8155 22.4895 18.0481 22.4137 18.27L22.396 18.2922Z" fill="#FEFEFE"/>
</g>
<defs>
<clipPath id="clip0_922_3868">
<rect width="20" height="14.0622" fill="white" transform="translate(2.5293 5.354)"/>
</clipPath>
</defs>
</svg>
