<svg width="24" height="24" viewBox="0 0 24 24" fill="none" xmlns="http://www.w3.org/2000/svg">
<g clip-path="url(#clip0_922_3853)">
<path d="M16.8919 21.9948C16.0192 21.9152 15.1799 21.693 14.3607 21.3883C12.2443 20.6014 10.3909 19.3834 8.68554 17.9214C6.64439 16.176 4.92848 14.1555 3.61523 11.8069C2.92463 10.5777 2.38664 9.28786 2.1182 7.8972C2.07587 7.68167 2.04635 7.4589 2.01127 7.24169C1.96838 6.97437 2.05582 6.73489 2.18391 6.51211C2.85669 5.32919 3.70712 4.28438 4.63887 3.29806C4.9938 2.91614 5.3843 2.5689 5.80509 2.26105C6.39989 1.83388 6.90113 1.96866 7.41629 2.41253C7.47393 2.46198 7.52553 2.51806 7.57001 2.57961C8.47614 3.86446 9.35219 5.16656 10.0172 6.59899C10.0979 6.77387 10.1564 6.95933 10.2266 7.13922C10.4287 7.65828 10.2929 8.09881 9.91692 8.48644C9.61673 8.79665 9.27923 9.06398 8.95231 9.343C8.56246 9.67382 8.55466 9.67382 8.75126 10.15C9.78326 12.6529 11.5716 14.3799 14.0978 15.3529C14.2738 15.4208 14.3763 15.3991 14.4977 15.2493C14.8046 14.8733 15.1298 14.5113 15.4562 14.1521C15.8811 13.6837 16.3879 13.5768 16.9822 13.8024C17.7418 14.0914 18.4441 14.4879 19.1358 14.9068C19.8877 15.3623 20.6195 15.8502 21.334 16.3637C21.5055 16.4823 21.6529 16.6324 21.7684 16.8059C22.0547 17.2475 22.0954 17.6808 21.7813 18.137C21.3558 18.7546 20.8267 19.2731 20.272 19.7671C19.4115 20.534 18.5115 21.2491 17.4996 21.8105C17.3113 21.9163 17.1214 22.0244 16.8919 21.9948Z" fill="white"/>
</g>
<defs>
<clipPath id="clip0_922_3853">
<rect width="19.9989" height="20" fill="white" transform="translate(2 2.00049)"/>
</clipPath>
</defs>
</svg>
