<svg width="16" height="20" viewBox="0 0 16 20" fill="none" xmlns="http://www.w3.org/2000/svg">
<path d="M1.19833 16.49C0.843384 16.8352 0.640113 17.3073 0.633237 17.8024C0.626361 18.2975 0.816443 18.775 1.16167 19.13C1.50689 19.4849 1.97898 19.6882 2.47407 19.6951C2.96917 19.702 3.44672 19.5119 3.80167 19.1667L8 14.8767L12.1983 19.1667C12.3688 19.3385 12.5715 19.4749 12.7949 19.568C13.0183 19.661 13.258 19.709 13.5 19.709C13.742 19.709 13.9816 19.661 14.2051 19.568C14.4285 19.4749 14.6312 19.3385 14.8017 19.1667C14.9735 18.9962 15.1099 18.7935 15.203 18.57C15.296 18.3466 15.344 18.107 15.344 17.865C15.344 17.623 15.296 17.3833 15.203 17.1599C15.1099 16.9365 14.9735 16.7338 14.8017 16.5633L9.30166 11.0633C9.13123 10.8915 8.92846 10.7551 8.70506 10.662C8.48165 10.5689 8.24202 10.521 8 10.521C7.75798 10.521 7.51835 10.5689 7.29494 10.662C7.07153 10.7551 6.86876 10.8915 6.69833 11.0633L1.19833 16.49ZM6.69833 0.906659L1.19833 6.40666C0.853108 6.75188 0.659163 7.2201 0.659163 7.70832C0.659163 8.19654 0.853108 8.66477 1.19833 9.00999C1.54356 9.35521 2.01178 9.54916 2.5 9.54916C2.98822 9.54916 3.45644 9.35521 3.80166 9.00999L8 4.79332L12.1983 9.00999C12.3688 9.18183 12.5715 9.31821 12.7949 9.41129C13.0183 9.50437 13.258 9.55229 13.5 9.55229C13.742 9.55229 13.9816 9.50437 14.2051 9.41129C14.4285 9.31821 14.6312 9.18183 14.8017 9.00999C14.9735 8.83956 15.1099 8.63679 15.203 8.41338C15.296 8.18997 15.344 7.95035 15.344 7.70832C15.344 7.4663 15.296 7.22667 15.203 7.00327C15.1099 6.77986 14.9735 6.57709 14.8017 6.40666L9.30166 0.906659C9.13612 0.729937 8.93721 0.587757 8.71642 0.488333C8.49563 0.388908 8.25733 0.334207 8.01528 0.327389C7.77323 0.320571 7.53223 0.361768 7.30619 0.448606C7.08015 0.535443 6.87356 0.666201 6.69833 0.833324L6.69833 0.906659Z" fill="#EC5959"/>
</svg>
